<?xml version="1.0" encoding="UTF-8"?>
<svg version="1.1" xmlns="http://www.w3.org/2000/svg" width="762" height="327">
<path d="M0 0 C7.98964564 -0.0466646 15.97923283 -0.08204041 23.96898174 -0.10362434 C27.68029842 -0.11399175 31.39152078 -0.12801946 35.1027832 -0.15087891 C38.69490782 -0.17286208 42.28694263 -0.18462133 45.87912941 -0.18975449 C47.89338268 -0.19516258 49.90760062 -0.21073301 51.92179871 -0.22659302 C67.71704566 -0.22848623 81.88390753 1.81707511 94.671875 11.66796875 C96 13 96 13 96 15 C96.99 15.33 97.98 15.66 99 16 C107.41572154 26.84839104 109.1402565 38.68390112 108 52 C105.83493569 63.6559437 99.2475944 72.2023888 89.6640625 78.94140625 C88 80 88 80 86 81 C86.48013 85.94251466 88.99191793 89.2754079 91.8125 93.1875 C92.80719015 94.60071825 93.80063062 96.01481671 94.79296875 97.4296875 C95.3142334 98.16928711 95.83549805 98.90888672 96.37255859 99.67089844 C99.17589169 103.68286929 101.90324385 107.74492476 104.625 111.8125 C105.14553955 112.58295654 105.6660791 113.35341309 106.20239258 114.1472168 C106.68474365 114.86820557 107.16709473 115.58919434 107.6640625 116.33203125 C108.09154785 116.96858643 108.5190332 117.6051416 108.95947266 118.26098633 C110 120 110 120 111 123 C106.42879047 123.22372271 101.86080841 123.38632695 97.28540039 123.49438477 C95.73210116 123.53944773 94.1791796 123.60072454 92.62719727 123.67895508 C79.81886361 124.30806424 79.81886361 124.30806424 75.57714844 121.25756836 C73.73958198 118.93244835 72.37034367 116.62447894 71 114 C70.04070546 112.55312947 69.06967468 111.11395787 68.0859375 109.68359375 C67.17794358 108.27101464 66.27425584 106.85565783 65.375 105.4375 C64.92382812 104.73431641 64.47265625 104.03113281 64.0078125 103.30664062 C63.55921875 102.60603516 63.110625 101.90542969 62.6484375 101.18359375 C62.19718506 100.49765137 61.74593262 99.81170898 61.28100586 99.10498047 C60 97 60 97 59.00219727 94.72705078 C57.87233237 92.33968269 56.97132362 90.76990093 55 89 C50.71674019 87.87107585 46.59551452 87.92782528 42.1875 88 C38.165625 88 34.14375 88 30 88 C30 99.55 30 111.1 30 123 C20.1 123 10.2 123 0 123 C-0.90038012 109.95924133 -1.14798501 97.01396339 -1.1328125 83.9453125 C-1.13348822 81.86603789 -1.13446046 79.78676336 -1.13571167 77.70748901 C-1.13717409 73.38278439 -1.1350801 69.05810061 -1.13037109 64.73339844 C-1.12465311 59.2162569 -1.12797515 53.6991638 -1.13394356 48.182024 C-1.13757038 43.90100748 -1.13640122 39.62000232 -1.13381577 35.33898544 C-1.13315348 33.30500152 -1.13395023 31.27101653 -1.13629532 29.23703384 C-1.15457656 8.94677509 -1.15457656 8.94677509 0 0 Z M30 25 C30 37.21 30 49.42 30 62 C37.7034375 62.0928125 37.7034375 62.0928125 45.5625 62.1875 C47.16939697 62.21481201 48.77629395 62.24212402 50.43188477 62.27026367 C52.3547229 62.28150269 52.3547229 62.28150269 54.31640625 62.29296875 C56.27235718 62.31653442 56.27235718 62.31653442 58.26782227 62.34057617 C64.47963106 61.77372373 69.48679186 59.38784125 74 55 C77.47390717 49.9688241 77.96195188 44.9274559 77 39 C74.72583156 33.18823621 70.59905128 28.76393845 65 26 C60.94389027 24.97265257 57.12375094 24.88457978 52.94921875 24.90234375 C51.74354248 24.90484131 50.53786621 24.90733887 49.2956543 24.90991211 C47.77496338 24.91901611 46.25427246 24.92812012 44.6875 24.9375 C39.840625 24.958125 34.99375 24.97875 30 25 Z " fill="#212120" transform="translate(212,166)"/>
<path d="M0 0 C1.25159912 0.00523682 2.50319824 0.01047363 3.79272461 0.01586914 C4.78942421 0.01799156 4.78942421 0.01799156 5.80625916 0.02015686 C7.93590735 0.02577021 10.06545175 0.03832485 12.19506836 0.05102539 C13.63582205 0.05603868 15.07657739 0.06060188 16.51733398 0.06469727 C20.05577938 0.07574394 23.59416375 0.09301747 27.13256836 0.11352539 C30.8210589 7.32824867 34.37987174 14.53922819 37.57006836 21.98852539 C40.1403932 27.97111617 42.91762745 33.80430973 45.86401367 39.60986328 C48.93493075 45.67470454 51.88804006 51.79295273 54.82006836 57.92602539 C55.49730957 59.33960327 55.49730957 59.33960327 56.18823242 60.78173828 C58.79546725 66.24440216 61.33738148 71.73262317 63.83251953 77.24731445 C67.27491338 84.83674239 70.78793492 92.39294061 74.34350586 99.92993164 C75.39819336 102.17862956 76.45288086 104.42732747 77.50756836 106.67602539 C78.0528418 107.82393555 78.59811523 108.9718457 79.15991211 110.15454102 C79.93141602 111.80679688 79.93141602 111.80679688 80.71850586 113.49243164 C81.18305176 114.47800049 81.64759766 115.46356934 82.1262207 116.47900391 C83.13256836 119.11352539 83.13256836 119.11352539 83.13256836 123.11352539 C72.57256836 123.11352539 62.01256836 123.11352539 51.13256836 123.11352539 C50.06006836 120.84477539 48.98756836 118.57602539 47.88256836 116.23852539 C47.55353516 115.54645996 47.22450195 114.85439453 46.88549805 114.14135742 C44.40349959 108.85507986 42.31367789 103.56629922 40.13256836 98.11352539 C21.32256836 97.78352539 2.51256836 97.45352539 -16.86743164 97.11352539 C-17.19743164 98.76352539 -17.52743164 100.41352539 -17.86743164 102.11352539 C-18.78592745 104.61876395 -19.73369995 107.08332322 -20.74243164 109.55102539 C-20.99895508 110.19362305 -21.25547852 110.8362207 -21.51977539 111.49829102 C-23.13683296 115.50030536 -24.92235636 119.22337483 -26.86743164 123.11352539 C-37.42743164 123.11352539 -47.98743164 123.11352539 -58.86743164 123.11352539 C-58.14954352 120.24197293 -57.48934143 118.05389704 -56.30102539 115.42260742 C-55.98456055 114.71683563 -55.6680957 114.01106384 -55.34204102 113.28390503 C-54.99979492 112.52900787 -54.65754883 111.77411072 -54.30493164 110.99633789 C-53.57418205 109.36918534 -52.84372138 107.74190301 -52.11352539 106.11450195 C-51.73953613 105.28325806 -51.36554687 104.45201416 -50.98022461 103.59558105 C-49.25743043 99.75293361 -47.56329431 95.89779982 -45.86743164 92.04321289 C-44.86802711 89.77976571 -43.86779298 87.51668656 -42.86743164 85.25366211 C-42.19944176 83.74057371 -41.53277982 82.22689837 -40.86743164 80.71264648 C-36.97697779 71.86224389 -32.94460653 63.12466605 -28.57450867 54.50006104 C-26.27981507 49.96762196 -24.15960702 45.4159448 -22.17993164 40.73852539 C-19.61041428 34.75002732 -16.85587683 28.90363794 -13.86743164 23.11352539 C-10.47233616 16.50016232 -7.25946285 9.93548138 -4.62915039 2.97680664 C-3.42842597 0.03964998 -3.35137325 0.13268528 0 0 Z M11.13256836 31.11352539 C10.81545898 32.00168945 10.49834961 32.88985352 10.17163086 33.80493164 C6.63230459 43.5439215 2.63187723 53.02861756 -1.61499023 62.48095703 C-2.03603027 63.4283374 -2.45707031 64.37571777 -2.89086914 65.35180664 C-3.27162598 66.19783447 -3.65238281 67.0438623 -4.04467773 67.91552734 C-5.04271403 70.19063825 -5.04271403 70.19063825 -4.86743164 73.11352539 C6.35256836 73.11352539 17.57256836 73.11352539 29.13256836 73.11352539 C26.64146997 65.61227814 26.64146997 65.61227814 23.79272461 58.30102539 C23.36926758 57.28782227 22.94581055 56.27461914 22.50952148 55.23071289 C21.85886719 53.68770508 21.85886719 53.68770508 21.19506836 52.11352539 C20.76516602 51.08485352 20.33526367 50.05618164 19.89233398 48.99633789 C17.37930402 43.0016746 14.80294059 37.03978755 12.13256836 31.11352539 C11.80256836 31.11352539 11.47256836 31.11352539 11.13256836 31.11352539 Z " fill="#212120" transform="translate(114.867431640625,165.886474609375)"/>
<path d="M0 0 C31.02 0 62.04 0 94 0 C94 7.92 94 15.84 94 24 C93 25 93 25 90.45005798 25.12025452 C88.74795921 25.1169236 88.74795921 25.1169236 87.01147461 25.11352539 C85.73022202 25.11344986 84.44896942 25.11337433 83.12889099 25.11329651 C81.72004152 25.10818909 80.31119244 25.10297309 78.90234375 25.09765625 C77.46887766 25.09579202 76.03541093 25.09436814 74.60194397 25.09336853 C70.82240043 25.08954372 67.0428951 25.07971377 63.2633667 25.06866455 C58.73212219 25.0566548 54.20086493 25.05204801 49.66960907 25.04621124 C42.77971278 25.03650198 35.88990038 25.0173452 29 25 C29 34.24 29 43.48 29 53 C32.86332031 52.98839844 36.72664062 52.97679687 40.70703125 52.96484375 C44.44018471 52.95704962 48.17333727 52.95097488 51.90649414 52.94506836 C54.50513107 52.94003319 57.10376515 52.9332047 59.70239258 52.92456055 C63.43311259 52.91245938 67.16379522 52.90676359 70.89453125 52.90234375 C72.64308159 52.89460182 72.64308159 52.89460182 74.42695618 52.88670349 C75.50785019 52.88662796 76.5887442 52.88655243 77.70239258 52.88647461 C78.65503494 52.884254 79.60767731 52.88203339 80.58918762 52.87974548 C83 53 83 53 86 54 C87.05553442 62.31233357 87.38262688 69.70423874 86 78 C67.19 78 48.38 78 29 78 C29 92.85 29 107.7 29 123 C19.43 123 9.86 123 0 123 C-1.18962107 120.62075786 -1.12576451 119.17838012 -1.12698364 116.52340698 C-1.12980347 115.58141953 -1.13262329 114.63943207 -1.13552856 113.66889954 C-1.13350433 112.63202499 -1.1314801 111.59515045 -1.12939453 110.52685547 C-1.13114685 109.43726028 -1.13289917 108.3476651 -1.13470459 107.22505188 C-1.13912258 103.60574777 -1.13618406 99.98649215 -1.1328125 96.3671875 C-1.13348585 93.85572297 -1.13445613 91.3442585 -1.13571167 88.83279419 C-1.13718881 83.55844628 -1.13512973 78.28411104 -1.13037109 73.00976562 C-1.12494545 66.92619284 -1.12667888 60.84265367 -1.1321975 54.75908172 C-1.13729971 48.89861983 -1.13673678 43.03817061 -1.13381577 37.17770767 C-1.13314961 34.68908814 -1.13396402 32.20046774 -1.13629532 29.71184921 C-1.13884374 26.22438057 -1.13494957 22.73697564 -1.12939453 19.24951172 C-1.13141876 18.22478256 -1.13344299 17.20005341 -1.13552856 16.14427185 C-1.13270874 15.18536545 -1.12988892 14.22645905 -1.12698364 13.23849487 C-1.12660662 12.415166 -1.12622959 11.59183712 -1.12584114 10.74355888 C-0.96085385 7.14654487 -0.44662376 3.57299004 0 0 Z " fill="#20201E" transform="translate(505,166)"/>
<path d="M0 0 C27.33449713 -3.49408518 27.33449713 -3.49408518 34.7109375 2.03027344 C38.97292277 7.1996869 41.52274562 13.0771858 43.89599609 19.29711914 C45.48216661 23.18046585 47.67862139 26.52519422 50 30 C51.00529436 31.68435136 52.00619793 33.3713425 53 35.0625 C54.82872948 38.14196674 56.73226431 41.06841322 58.875 43.9375 C61 47 61 47 61 50 C64.22426271 47.17096949 66.34683873 43.58626677 68.625 40 C69.03234375 39.3709375 69.4396875 38.741875 69.859375 38.09375 C71.5711795 35.41834694 72.99150149 33.02549552 74 30 C74.66 30 75.32 30 76 30 C76.33064453 29.03707031 76.33064453 29.03707031 76.66796875 28.0546875 C78.50704517 23.83721606 80.89618176 20.03346695 83.3125 16.125 C83.78623047 15.34769531 84.25996094 14.57039062 84.74804688 13.76953125 C85.69484692 12.22822885 86.66151869 10.69894724 87.64819336 9.18286133 C89.03019248 7.06415916 89.03019248 7.06415916 89.93188477 4.88549805 C91.08158831 2.5916086 91.86190546 1.44825176 94 0 C99.12595111 -0.86741455 104.14689498 -0.65841521 109.3125 -0.4375 C110.73494981 -0.40236379 112.15748253 -0.37042876 113.58007812 -0.34179688 C117.05511532 -0.26489551 120.52703174 -0.14424469 124 0 C123.45869642 3.30528619 122.77249681 5.78419636 120.9609375 8.6015625 C120.5486792 9.25116943 120.1364209 9.90077637 119.71166992 10.57006836 C119.27056885 11.2481958 118.82946777 11.92632324 118.375 12.625 C117.92423096 13.33213135 117.47346191 14.0392627 117.0090332 14.76782227 C115.68005979 16.85006187 114.34151075 18.92582194 113 21 C108.13624362 28.50137999 108.13624362 28.50137999 103.6875 36.25 C101.48314235 40.30687972 98.95999557 44.11695911 96.375 47.9375 C92.43387195 53.76628809 88.66626674 59.68190442 85 65.6875 C84.53126465 66.45376709 84.0625293 67.22003418 83.57958984 68.00952148 C79.2124936 74.81305537 79.2124936 74.81305537 77.68115234 82.58496094 C77.66128265 83.48559265 77.64141296 84.38622437 77.62094116 85.31414795 C77.60938995 86.27782288 77.59783875 87.2414978 77.5859375 88.234375 C77.56657135 89.22753723 77.5472052 90.22069946 77.5272522 91.24395752 C77.46752678 94.41255129 77.42109889 97.58118153 77.375 100.75 C77.33681377 102.89975533 77.29776166 105.04949546 77.2578125 107.19921875 C77.16020297 112.46606627 77.08057784 117.73275414 77 123 C67.1 123 57.2 123 47 123 C45.85536267 120.71072534 45.9024732 119.5258576 45.95336914 116.98779297 C45.96570084 116.15867401 45.97803253 115.32955505 45.99073792 114.47531128 C46.00539597 113.57338043 46.02005402 112.67144958 46.03515625 111.7421875 C46.04119716 109.81641297 46.04435244 107.89062767 46.04492188 105.96484375 C46.04662457 102.94036377 46.061534 99.91981815 46.12670898 96.89599609 C46.40509593 82.95354601 44.81824765 73.74693397 36.19244385 62.59986877 C34.44436702 60.25452267 33.040624 57.7430107 31.625 55.1875 C28.56010598 49.86388077 25.29579761 44.68221474 22 39.5 C18.09043798 33.35202444 14.27768647 27.17594847 10.6640625 20.84765625 C9.42181178 18.72183284 8.15320212 16.63705984 6.8359375 14.55859375 C6.46823242 13.97577637 6.10052734 13.39295898 5.72167969 12.79248047 C4.68759832 11.16124704 3.64485344 9.53551492 2.6015625 7.91015625 C1.07359634 5.13372994 0.53131823 3.07989411 0 0 Z " fill="#222220" transform="translate(602,166)"/>
<path d="M0 0 C13.9337962 -0.02254828 27.86758037 -0.04091349 41.80139065 -0.05181217 C48.2706768 -0.05704168 54.73994989 -0.06414056 61.20922852 -0.07543945 C67.446703 -0.08626592 73.68416487 -0.09227632 79.92164803 -0.09487724 C82.30720277 -0.09673193 84.69275679 -0.10035336 87.0783062 -0.10573006 C90.40695591 -0.11293729 93.73555279 -0.11399108 97.06420898 -0.11352539 C98.06114273 -0.11712067 99.05807648 -0.12071594 100.08522034 -0.12442017 C100.98690948 -0.1230455 101.88859863 -0.12167084 102.81761169 -0.12025452 C103.6057447 -0.12117631 104.3938777 -0.1220981 105.20589352 -0.12304783 C107 0 107 0 108 1 C108.08726223 2.78071246 108.10699041 4.5648314 108.09765625 6.34765625 C108.09515869 7.31968994 108.09266113 8.29172363 108.09008789 9.29321289 C108.08098389 10.53707764 108.07187988 11.78094238 108.0625 13.0625 C108.041875 17.001875 108.02125 20.94125 108 25 C94.8 25 81.6 25 68 25 C68 57.34 68 89.68 68 123 C58.43 123 48.86 123 39 123 C37.875 114 37.875 114 37.87974548 110.62121582 C37.87837082 109.85294464 37.87699615 109.08467346 37.87557983 108.29312134 C37.88097275 107.07391495 37.88097275 107.07391495 37.88647461 105.83007812 C37.88632858 104.95108856 37.88618256 104.072099 37.8860321 103.16647339 C37.88672359 100.28803967 37.89447991 97.40967229 37.90234375 94.53125 C37.90421065 92.52486201 37.90563327 90.51847357 37.90663147 88.51208496 C37.91043524 83.25141118 37.92024712 77.99076534 37.93133545 72.73010254 C37.94159572 67.35392637 37.94613895 61.97774565 37.95117188 56.6015625 C37.96187143 46.06769413 37.97945077 35.53385377 38 25 C25.46 25 12.92 25 0 25 C0 16.75 0 8.5 0 0 Z " fill="#1F1F1E" transform="translate(329,166)"/>
<path d="M0 0 C1.30066406 -0.00128906 2.60132813 -0.00257813 3.94140625 -0.00390625 C4.96258545 -0.00076416 4.96258545 -0.00076416 6.00439453 0.00244141 C8.08503515 0.0077901 10.16545989 0.0024957 12.24609375 -0.00390625 C14.19708984 -0.00197266 14.19708984 -0.00197266 16.1875 0 C17.39083984 0.00112793 18.59417969 0.00225586 19.83398438 0.00341797 C22.59375 0.1328125 22.59375 0.1328125 23.59375 1.1328125 C23.69183025 2.69936709 23.72006877 4.27034402 23.72073364 5.83996582 C23.72355347 6.85800797 23.72637329 7.87605011 23.72927856 8.92494202 C23.72725433 10.05121506 23.7252301 11.1774881 23.72314453 12.33789062 C23.72489685 13.5166124 23.72664917 14.69533417 23.72845459 15.90977478 C23.73211267 19.15142858 23.73123974 22.39304183 23.7280755 25.63469505 C23.72555144 29.02017683 23.72788957 32.40565582 23.72946167 35.7911377 C23.73128323 41.47746266 23.72887741 47.16377466 23.72412109 52.85009766 C23.7186785 59.43309268 23.72044116 66.01605673 23.7259475 72.599051 C23.73047901 78.24150563 23.73112899 83.88395091 23.72850883 89.52640676 C23.72694627 92.90059002 23.72675172 96.27475871 23.73004532 99.64894104 C23.73257012 103.40856046 23.72873368 107.16811948 23.72314453 110.92773438 C23.72516876 112.05400742 23.72719299 113.18028046 23.72927856 114.34068298 C23.72504883 115.8677462 23.72504883 115.8677462 23.72073364 117.42565918 C23.72035662 118.31573418 23.71997959 119.20580917 23.71959114 120.12285614 C23.59375 122.1328125 23.59375 122.1328125 22.59375 123.1328125 C20.46021826 123.23284539 18.32337458 123.26362298 16.1875 123.265625 C14.88683594 123.26691406 13.58617187 123.26820313 12.24609375 123.26953125 C11.56530762 123.26743652 10.88452148 123.2653418 10.18310547 123.26318359 C8.10246485 123.2578349 6.02204011 123.2631293 3.94140625 123.26953125 C1.99041016 123.26759766 1.99041016 123.26759766 0 123.265625 C-1.20333984 123.26449707 -2.40667969 123.26336914 -3.64648438 123.26220703 C-6.40625 123.1328125 -6.40625 123.1328125 -7.40625 122.1328125 C-7.50433025 120.56625791 -7.53256877 118.99528098 -7.53323364 117.42565918 C-7.53605347 116.40761703 -7.53887329 115.38957489 -7.54177856 114.34068298 C-7.53975433 113.21440994 -7.5377301 112.0881369 -7.53564453 110.92773438 C-7.53739685 109.7490126 -7.53914917 108.57029083 -7.54095459 107.35585022 C-7.54461267 104.11419642 -7.54373974 100.87258317 -7.5405755 97.63092995 C-7.53805144 94.24544817 -7.54038957 90.85996918 -7.54196167 87.4744873 C-7.54378323 81.78816234 -7.54137741 76.10185034 -7.53662109 70.41552734 C-7.5311785 63.83253232 -7.53294116 57.24956827 -7.5384475 50.666574 C-7.54297901 45.02411937 -7.54362899 39.38167409 -7.54100883 33.73921824 C-7.53944627 30.36503498 -7.53925172 26.99086629 -7.54254532 23.61668396 C-7.54507012 19.85706454 -7.54123368 16.09750552 -7.53564453 12.33789062 C-7.53766876 11.21161758 -7.53969299 10.08534454 -7.54177856 8.92494202 C-7.53895874 7.90689987 -7.53613892 6.88885773 -7.53323364 5.83996582 C-7.53285662 4.94989082 -7.53247959 4.05981583 -7.53209114 3.14276886 C-7.25556495 -1.27395503 -3.64938902 0.00342069 0 0 Z " fill="#20201E" transform="translate(457.40625,165.8671875)"/>
<path d="M0 0 C1.76001647 3.52003293 0.82706559 7.25575919 0 11 C-1.19275276 13.73313861 -2.75190177 16.10910957 -4.4375 18.5625 C-5.34035432 19.9384672 -6.24268133 21.31478053 -7.14453125 22.69140625 C-7.61197754 23.39281738 -8.07942383 24.09422852 -8.56103516 24.81689453 C-10.98816111 28.49917487 -13.30036273 32.25252803 -15.625 36 C-16.47083613 37.3544903 -17.31714155 38.70868774 -18.1640625 40.0625 C-18.76992188 41.031875 -19.37578125 42.00125 -20 43 C-15.42519656 41.5277793 -10.92881964 39.99697531 -6.5 38.125 C-1.11083217 35.9184116 4.42621042 34.33150715 10.0234375 32.75048828 C13.00861468 31.90317625 15.88693662 31.04544861 18.76953125 29.88671875 C21.46485008 28.8151997 24.1073022 28.51583651 26.98046875 28.22265625 C28.72840256 28.02994401 30.46183512 27.71336566 32.1875 27.375 C37.85804462 26.81724151 43.34264216 27.47108726 49 28 C49.97582031 28.05027344 50.95164062 28.10054687 51.95703125 28.15234375 C52.83746094 28.20519531 53.71789062 28.25804688 54.625 28.3125 C55.40101563 28.34988281 56.17703125 28.38726562 56.9765625 28.42578125 C59.75779148 29.21504893 60.56024582 30.55608606 62 33 C62 33.66 62 34.32 62 35 C61.2265625 34.7834375 60.453125 34.566875 59.65625 34.34375 C53.70574563 32.75302111 48.18846974 31.3800258 42 32 C41.11699219 32.08121094 40.23398437 32.16242187 39.32421875 32.24609375 C23.21977712 34.23101222 7.88882897 40.21136123 -7.06982422 46.23779297 C-9.73142793 47.28883354 -12.42491634 48.24042802 -15.125 49.1875 C-15.96804688 49.50332031 -16.81109375 49.81914063 -17.6796875 50.14453125 C-19.16707863 50.69291283 -20.67279544 51.19513462 -22.1953125 51.63671875 C-27.31519888 53.47637374 -29.13233958 56.42532125 -31.625 61.1875 C-34.19754775 66.66396957 -36.36302053 72.31905098 -38.4375 78 C-38.6967627 78.70535889 -38.95602539 79.41071777 -39.22314453 80.13745117 C-40.6388348 84.2225203 -41.2766396 87.68172336 -41 92 C-42.32 92 -43.64 92 -45 92 C-46.69992154 90.30007846 -46.33375678 88.27329443 -46.4375 85.9375 C-46.40329493 76.43989115 -42.37024918 67.31620233 -38 59 C-39.60488281 59.70962891 -39.60488281 59.70962891 -41.2421875 60.43359375 C-42.78578754 61.10311116 -44.3301265 61.77092629 -45.875 62.4375 C-46.70620361 62.80020996 -47.53740723 63.16291992 -48.39379883 63.53662109 C-53.45279741 65.68666093 -58.49111771 67.50184248 -63.76953125 69.04296875 C-77.23199767 72.33630571 -77.23199767 72.33630571 -87.34423828 80.96337891 C-88.82855624 83.89120609 -89.92800502 86.90089924 -91 90 C-92.0899827 92.25690535 -93.19375202 94.50721446 -94.3125 96.75 C-96.40377847 101.37907315 -98.03978138 105.94959428 -99.26171875 110.87890625 C-100.1267967 113.36428892 -101.24789355 115.04385077 -103 117 C-103.66 117 -104.32 117 -105 117 C-103.22423583 102.49792598 -96.59198734 89.84202721 -90 77 C-90.62261719 77.18175781 -91.24523437 77.36351563 -91.88671875 77.55078125 C-111.32034636 82.83607746 -137.36970276 87.90973257 -156 78 C-156.928125 77.54625 -157.85625 77.0925 -158.8125 76.625 C-161.43058268 74.68013858 -162.08287267 73.08488284 -163 70 C-162.443125 70.28875 -161.88625 70.5775 -161.3125 70.875 C-158.91505355 72.0413253 -156.48403061 73.0339881 -154 74 C-154 74.66 -154 75.32 -154 76 C-134.7927553 81.40505378 -111.76794309 77.62738964 -93 72 C-92.22269531 71.79890625 -91.44539063 71.5978125 -90.64453125 71.390625 C-86.62856146 70.19095461 -84.56334555 68.87320395 -82.5 65.3125 C-82.005 64.219375 -81.51 63.12625 -81 62 C-80.34 62 -79.68 62 -79 62 C-78.74992187 61.27683594 -78.49984375 60.55367187 -78.2421875 59.80859375 C-76.88433774 56.73848691 -75.28417052 54.62898656 -73.125 52.0625 C-72.32578125 51.10988281 -71.5265625 50.15726563 -70.703125 49.17578125 C-69.80213108 48.11714686 -68.90108686 47.05855528 -68 46 C-66.99459048 44.80615899 -65.98938886 43.61214286 -64.984375 42.41796875 C-54.52423516 30.04386689 -54.52423516 30.04386689 -49 25 C-48.34 25 -47.68 25 -47 25 C-46.505 23.515 -46.505 23.515 -46 22 C-42.55555556 19 -42.55555556 19 -40 19 C-40 18.34 -40 17.68 -40 17 C-37.78300495 15.31605294 -35.5769018 13.76910561 -33.25 12.25 C-32.57130859 11.80333984 -31.89261719 11.35667969 -31.19335938 10.89648438 C-9.96936415 -2.84838976 -9.96936415 -2.84838976 0 0 Z M-8.85546875 5.4609375 C-14.5802147 7.70480777 -19.84445824 10.49907939 -25.125 13.625 C-25.80071045 14.02122559 -26.4764209 14.41745117 -27.17260742 14.82568359 C-28.81929788 15.82433261 -30.41536705 16.90554684 -32 18 C-32 18.66 -32 19.32 -32 20 C-32.7425 20.268125 -33.485 20.53625 -34.25 20.8125 C-36.89061949 21.95276751 -38.85552844 23.09380306 -41 25 C-41 25.66 -41 26.32 -41 27 C-41.99 27 -42.98 27 -44 27 C-45.72885193 28.60206946 -47.38635727 30.28194509 -49 32 C-49.8765625 32.83015625 -50.753125 33.6603125 -51.65625 34.515625 C-60.10235914 42.63688379 -67.06709539 51.57529193 -74 61 C-74.99866517 62.33433342 -75.99778194 63.6683331 -77 65 C-76.67 65.66 -76.34 66.32 -76 67 C-63.75225304 62.90671628 -51.90509959 58.12031732 -40.09619141 52.89672852 C-38.44775867 52.19154643 -36.7636415 51.56974724 -35.0703125 50.98046875 C-32.47470652 49.75122894 -31.61443831 48.49936209 -30.125 46.0625 C-29.62742187 45.26457031 -29.12984375 44.46664062 -28.6171875 43.64453125 C-28.08351563 42.77183594 -27.54984375 41.89914063 -27 41 C-25.75007977 39.08328131 -24.50007911 37.16661507 -23.25 35.25 C-21.08415267 31.91342438 -19.3713407 28.73757563 -18 25 C-17.34 25 -16.68 25 -16 25 C-15.62488281 24.29875 -15.24976563 23.5975 -14.86328125 22.875 C-11.75714303 17.11651706 -8.53279165 11.50699874 -5 6 C-6.92331927 4.7676479 -6.92331927 4.7676479 -8.85546875 5.4609375 Z " fill="#393638" transform="translate(441,10)"/>
<path d="M0 0 C0.99 0 1.98 0 3 0 C3 22.44 3 44.88 3 68 C-19.24701958 68.28967473 -19.24701958 68.28967473 -28.88671875 68.40429688 C-35.4097212 68.48189528 -41.93268738 68.56076095 -48.45556641 68.64819336 C-94.74359294 69.26554923 -94.74359294 69.26554923 -114 68 C-114 66.68 -114 65.36 -114 64 C-86.71269351 63.03730383 -59.48296454 62.98561348 -32.1875 63.4375 C-31.41288925 63.45031384 -30.6382785 63.46312767 -29.8401947 63.4763298 C-20.22652072 63.63667056 -10.61316354 63.81145611 -1 64 C-1.00222061 63.21295181 -1.00444122 62.42590363 -1.00672913 61.61500549 C-1.02673113 54.2130967 -1.04197366 46.81120092 -1.05181217 39.40927219 C-1.0570402 35.60348423 -1.06413638 31.79771852 -1.07543945 27.99194336 C-1.0862712 24.32207456 -1.09227744 20.65222722 -1.09487724 16.98234367 C-1.09673097 15.57925008 -1.1003506 14.17615771 -1.10573006 12.7730732 C-1.11294419 10.8143032 -1.11340809 8.8555118 -1.11352539 6.89672852 C-1.115746 5.77976089 -1.11796661 4.66279327 -1.12025452 3.51197815 C-1 1 -1 1 0 0 Z " fill="#545156" transform="translate(471,48)"/>
<path d="M0 0 C28.71 0 57.42 0 87 0 C87 1.32 87 2.64 87 4 C59.61 4 32.22 4 4 4 C4.33 12.25 4.66 20.5 5 29 C4.92400216 35.199953 4.80924841 41.37129423 4.5625 47.5625 C4.50891281 49.08655879 4.45617966 50.61064786 4.40429688 52.13476562 C4.27923076 55.75690858 4.14311971 59.37851962 4 63 C2.68 63 1.36 63 0 63 C0 42.21 0 21.42 0 0 Z " fill="#514E50" transform="translate(309,21)"/>
<path d="M0 0 C8.58 0 17.16 0 26 0 C26 39.93 26 79.86 26 121 C16.43 121 6.86 121 -3 121 C-2.505 120.01 -2.505 120.01 -2 119 C6.25 119.33 14.5 119.66 23 120 C23 80.73 23 41.46 23 1 C15.41 1 7.82 1 0 1 C0 0.67 0 0.34 0 0 Z " fill="#3D3D3C" transform="translate(455,167)"/>
<path d="M0 0 C1.21925171 0.0777063 1.21925171 0.0777063 2.46313477 0.15698242 C4.07733505 0.26214782 5.69135783 0.37007902 7.30517578 0.48095703 C9.13836321 0.60126633 10.97340709 0.69284283 12.80859375 0.77734375 C13.67613281 0.83019531 14.54367187 0.88304687 15.4375 0.9375 C16.16839844 0.97488281 16.89929688 1.01226562 17.65234375 1.05078125 C20.28581857 1.86921846 21.11261725 3.30689653 22.5 5.625 C22.5 6.285 22.5 6.945 22.5 7.625 C21.7265625 7.4084375 20.953125 7.191875 20.15625 6.96875 C14.20574563 5.37802111 8.68846974 4.0050258 2.5 4.625 C1.17548828 4.74681641 1.17548828 4.74681641 -0.17578125 4.87109375 C-12.01673672 6.33052536 -23.85591288 9.93741886 -34.91796875 14.37890625 C-38.5 15.625 -38.5 15.625 -41.5 14.625 C-43.05853267 14.40696693 -44.62182651 14.22133644 -46.1875 14.0625 C-46.99574219 13.97871094 -47.80398438 13.89492188 -48.63671875 13.80859375 C-49.25160156 13.74800781 -49.86648438 13.68742187 -50.5 13.625 C-49.5 11.625 -49.5 11.625 -46.65625 10.66015625 C-45.4496875 10.33917969 -44.243125 10.01820312 -43 9.6875 C-36.0003003 7.77074653 -29.17444913 5.69738582 -22.4375 3 C-18.47541035 1.47550859 -14.71198494 1.06072258 -10.5 0.625 C-7.20375461 -1.0231227 -3.5955516 -0.23517574 0 0 Z " fill="#6A6568" transform="translate(480.5,37.375)"/>
<path d="M0 0 C0.556875 0.28875 1.11375 0.5775 1.6875 0.875 C4.08494645 2.0413253 6.51596939 3.0339881 9 4 C9 4.66 9 5.32 9 6 C27.63643141 11.24442291 49.27987636 7.64243355 67.6015625 2.62890625 C70.72374902 1.81022216 73.79620686 1.3640674 77 1 C76.67 2.98 76.34 4.96 76 7 C26.9264854 18.59919436 26.9264854 18.59919436 7 8 C6.071875 7.54625 5.14375 7.0925 4.1875 6.625 C1.56941732 4.68013858 0.91712733 3.08488284 0 0 Z " fill="#3A373B" transform="translate(278,80)"/>
<path d="M0 0 C0.33 0 0.66 0 1 0 C1.495 11.385 1.495 11.385 2 23 C-27.7 23 -57.4 23 -88 23 C-87.67 22.34 -87.34 21.68 -87 21 C-69.52896184 19.80018498 -52.0689244 19.87973241 -34.5680542 19.93133545 C-30.65865633 19.94173196 -26.74925159 19.94616734 -22.83984375 19.95117188 C-15.22654211 19.9617625 -7.61328206 19.97928749 0 20 C0 13.4 0 6.8 0 0 Z " fill="#100D11" transform="translate(471,93)"/>
<path d="M0 0 C0 0.99 0 1.98 0 3 C-0.33 3.33 -0.66 3.66 -1 4 C-0.34 4.33 0.32 4.66 1 5 C1.51264599 9.22932944 0.22972803 11.44731036 -1.88623047 15.02661133 C-3.75599643 18.3394825 -5.22912929 21.80296047 -6.6875 25.3125 C-6.9956665 26.05363037 -7.30383301 26.79476074 -7.62133789 27.55834961 C-9.83387129 33.09662936 -10.90471288 37.99691149 -11 44 C-12.32 44 -13.64 44 -15 44 C-16.69992154 42.30007846 -16.33375678 40.27329443 -16.4375 37.9375 C-16.41026606 32.27284083 -15.16657574 27.67272443 -13.1875 22.4375 C-12.92702881 21.74712646 -12.66655762 21.05675293 -12.39819336 20.34545898 C-11.02910958 16.93560974 -9.73268924 14.45080726 -7 12 C-6.67 11.01 -6.34 10.02 -6 9 C-7.65 8.67 -9.3 8.34 -11 8 C-10.67 7.01 -10.34 6.02 -10 5 C-7.67328146 4.31060191 -5.33932406 3.64533078 -3 3 C-1.09829946 1.52238341 -1.09829946 1.52238341 0 0 Z " fill="#413E41" transform="translate(411,58)"/>
<path d="M0 0 C0.33 0.66 0.66 1.32 1 2 C0.00390625 4.1640625 0.00390625 4.1640625 -1.4375 6.625 C-1.91058594 7.44226562 -2.38367188 8.25953125 -2.87109375 9.1015625 C-3.24363281 9.72804688 -3.61617188 10.35453125 -4 11 C-3.21718695 9.66144944 -2.42348123 8.32926356 -1.625 7 C-1.18414062 6.2575 -0.74328125 5.515 -0.2890625 4.75 C0.13632812 4.1725 0.56171875 3.595 1 3 C1.66 3 2.32 3 3 3 C3 3.66 3 4.32 3 5 C3.66 5.33 4.32 5.66 5 6 C5 6.66 5 7.32 5 8 C5.61746094 7.77183594 6.23492187 7.54367188 6.87109375 7.30859375 C13.11792604 5.18828386 17.50610064 4.84785657 24 6 C23.34 6.33 22.68 6.66 22 7 C22 7.66 22 8.32 22 9 C20.80503906 9.45890625 19.61007812 9.9178125 18.37890625 10.390625 C10.5048259 13.42630542 2.66160586 16.45296025 -5 20 C-5 19.34 -5 18.68 -5 18 C-5.99 17.67 -6.98 17.34 -8 17 C-7.67 16.34 -7.34 15.68 -7 15 C-7.66 15.66 -8.32 16.32 -9 17 C-10.32 17 -11.64 17 -13 17 C-13.33 17.99 -13.66 18.98 -14 20 C-14 19.34 -14 18.68 -14 18 C-14.66 17.67 -15.32 17.34 -16 17 C-14.94683594 16.65324219 -13.89367187 16.30648437 -12.80859375 15.94921875 C-8.28549739 14.01074888 -6.4563774 10.96327524 -4.0625 6.8125 C-3.66482422 6.15830078 -3.26714844 5.50410156 -2.85742188 4.83007812 C-1.88811142 3.23013196 -0.9416448 1.61638348 0 0 Z " fill="#5A585A" transform="translate(417,45)"/>
<path d="M0 0 C1.27724064 0.01922075 1.27724064 0.01922075 2.58028412 0.0388298 C13.24124623 0.20046296 23.90195451 0.37542807 34.5625 0.5625 C34.5625 0.8925 34.5625 1.2225 34.5625 1.5625 C33.38883881 1.5779612 33.38883881 1.5779612 32.19146729 1.59373474 C24.72184046 1.69279181 17.25227463 1.7954326 9.78274918 1.90183926 C5.94503262 1.95638976 2.10730823 2.00967993 -1.73046875 2.05981445 C-22.56570763 2.31058555 -22.56570763 2.31058555 -43.390625 2.97265625 C-44.18789001 3.00137314 -44.98515503 3.03009003 -45.80657959 3.05967712 C-49.49961548 3.24464096 -51.28922042 3.46364695 -54.4375 5.5625 C-56.98120117 5.69775391 -56.98120117 5.69775391 -59.98046875 5.5390625 C-61.59018555 5.46171875 -61.59018555 5.46171875 -63.23242188 5.3828125 C-64.35197266 5.31835938 -65.47152344 5.25390625 -66.625 5.1875 C-67.75615234 5.13078125 -68.88730469 5.0740625 -70.05273438 5.015625 C-72.84829047 4.87407786 -75.64295841 4.72265835 -78.4375 4.5625 C-78.4375 3.2425 -78.4375 1.9225 -78.4375 0.5625 C-52.28365445 -0.6079735 -26.16776144 -0.39407284 0 0 Z " fill="#B8B5B8" transform="translate(435.4375,111.4375)"/>
<path d="M0 0 C0.66 0.33 1.32 0.66 2 1 C1.67 1.66 1.34 2.32 1 3 C2.98 3 4.96 3 7 3 C-1.44827586 10 -1.44827586 10 -5 10 C-5 10.66 -5 11.32 -5 12 C-6.71484375 13.21875 -6.71484375 13.21875 -8.9375 14.5 C-12.05432026 16.18454879 -12.05432026 16.18454879 -14 19 C-14.99 19 -15.98 19 -17 19 C-17.185625 19.556875 -17.37125 20.11375 -17.5625 20.6875 C-19.66360714 24.06754192 -22.70665994 25.85140381 -26 28 C-27.32 27.01 -28.64 26.02 -30 25 C-28.71451591 23.66070495 -27.42141845 22.32871357 -26.125 21 C-25.40570313 20.2575 -24.68640625 19.515 -23.9453125 18.75 C-22 17 -22 17 -20 17 C-19.67 16.01 -19.34 15.02 -19 14 C-15.55555556 11 -15.55555556 11 -13 11 C-13 10.34 -13 9.68 -13 9 C-10.86229382 7.37322909 -8.7324466 5.86020356 -6.5 4.375 C-5.87996094 3.95476563 -5.25992187 3.53453125 -4.62109375 3.1015625 C-3.08482736 2.06162833 -1.54292476 1.03002944 0 0 Z " fill="#2E2D2E" transform="translate(414,18)"/>
<path d="M0 0 C0.66 0.33 1.32 0.66 2 1 C1.67 1.66 1.34 2.32 1 3 C3.475 3.495 3.475 3.495 6 4 C5.67 5.32 5.34 6.64 5 8 C4.67 7.34 4.34 6.68 4 6 C3.45585449 6.23710693 2.91170898 6.47421387 2.35107422 6.71850586 C-0.13800359 7.79844702 -2.63140497 8.86803292 -5.125 9.9375 C-5.9809375 10.31068359 -6.836875 10.68386719 -7.71875 11.06835938 C-12.14678218 12.9587885 -16.16086277 14.50022025 -21 15 C-21.28875 14.360625 -21.5775 13.72125 -21.875 13.0625 C-22.82823451 10.84793921 -22.82823451 10.84793921 -25 10 C-18.33333333 7.33333333 -11.66666667 4.66666667 -5 2 C-4.11594482 1.60925293 -3.23188965 1.21850586 -2.32104492 0.81591797 C-1.5551001 0.54666504 -0.78915527 0.27741211 0 0 Z " fill="#4C4A4A" transform="translate(399,63)"/>
<path d="M0 0 C2.62331282 3.93496923 2.37045918 7.39777014 2.44921875 11.97265625 C2.48182549 13.29093666 2.48182549 13.29093666 2.51509094 14.635849 C2.55898555 16.49256314 2.59819045 18.34939321 2.63305664 20.20629883 C2.68736137 23.05522738 2.75753109 25.90343672 2.83007812 28.75195312 C2.8707297 30.55466659 2.91047416 32.35740079 2.94921875 34.16015625 C2.96997971 35.01537369 2.99074066 35.87059113 3.01213074 36.75172424 C3.11588665 42.7682267 3.11588665 42.7682267 2 45 C10.58 45 19.16 45 28 45 C28 31.14 28 17.28 28 3 C28.33 3 28.66 3 29 3 C29 17.19 29 31.38 29 46 C24.400625 46.020625 19.80125 46.04125 15.0625 46.0625 C13.60980713 46.071604 12.15711426 46.08070801 10.66040039 46.09008789 C9.52594482 46.09258545 8.39148926 46.09508301 7.22265625 46.09765625 C5.47094116 46.10551147 5.47094116 46.10551147 3.68383789 46.11352539 C1 46 1 46 0 45 C-0.0928726 43.58774954 -0.11746772 42.17091066 -0.11352539 40.75561523 C-0.11344986 39.85475693 -0.11337433 38.95389862 -0.11329651 38.02574158 C-0.10813522 37.04658279 -0.10297394 36.06742401 -0.09765625 35.05859375 C-0.0962413 34.06118668 -0.09482635 33.0637796 -0.09336853 32.03614807 C-0.08775114 28.83656876 -0.07519571 25.63705831 -0.0625 22.4375 C-0.05748724 20.27408955 -0.05292395 18.11067801 -0.04882812 15.94726562 C-0.03777607 10.63148675 -0.02102104 5.31574829 0 0 Z " fill="#0D0C0C" transform="translate(649,242)"/>
<path d="M0 0 C0.66 1.32 1.32 2.64 2 4 C1.35840942 4.60678589 1.35840942 4.60678589 0.70385742 5.22583008 C-3.93241124 9.72012688 -7.8508715 14.50372793 -11.6875 19.6875 C-18.33507922 28.62042585 -18.33507922 28.62042585 -22 32 C-20.125 27.125 -20.125 27.125 -19 26 C-19.66 25.67 -20.32 25.34 -21 25 C-21 25.66 -21 26.32 -21 27 C-21.66 26.67 -22.32 26.34 -23 26 C-17.92252326 19.01396817 -12.74044213 12.38788228 -6.84765625 6.05859375 C-4.85434369 3.93638507 -4.85434369 3.93638507 -3 1 C-2.01 0.67 -1.02 0.34 0 0 Z " fill="#504E51" transform="translate(386,43)"/>
<path d="M0 0 C0.33 1.32 0.66 2.64 1 4 C1.66 4 2.32 4 3 4 C1.61705138 8.54102531 -0.2296284 12.5526699 -2.4375 16.75 C-4.99176979 21.68956481 -7.00196475 26.49393816 -8.296875 31.9140625 C-9.13399344 34.39751387 -10.25557929 36.05294456 -12 38 C-12.66 38 -13.32 38 -14 38 C-12.31261416 24.2196823 -6.30957823 12.22887328 0 0 Z " fill="#464347" transform="translate(350,89)"/>
<path d="M0 0 C1.32 0.33 2.64 0.66 4 1 C5.13016601 6.02296004 4.77916092 9.97874074 4 15 C9.28 15 14.56 15 20 15 C20.33 16.32 20.66 17.64 21 19 C19.0010191 19.19806975 17.00072395 19.38288955 15 19.5625 C13.88625 19.66691406 12.7725 19.77132812 11.625 19.87890625 C8 20 8 20 0 19 C0 12.73 0 6.46 0 0 Z " fill="#6B686E" transform="translate(309,97)"/>
<path d="M0 0 C3.97915159 -0.02886984 7.95827653 -0.04675406 11.9375 -0.0625 C13.07380859 -0.07087891 14.21011719 -0.07925781 15.38085938 -0.08789062 C16.46044922 -0.09111328 17.54003906 -0.09433594 18.65234375 -0.09765625 C20.15269165 -0.10551147 20.15269165 -0.10551147 21.68334961 -0.11352539 C24 0 24 0 25 1 C25.07244053 3.01964199 25.08377188 5.04167124 25.0625 7.0625 C25.05347656 8.16722656 25.04445313 9.27195312 25.03515625 10.41015625 C25.02355469 11.26480469 25.01195312 12.11945312 25 13 C23.68 12.67 22.36 12.34 21 12 C21 9.36 21 6.72 21 4 C13.74 4 6.48 4 -1 4 C-0.67 2.68 -0.34 1.36 0 0 Z " fill="#555054" transform="translate(449,21)"/>
<path d="M0 0 C1.1921814 0.08447388 1.1921814 0.08447388 2.40844727 0.1706543 C3.97922934 0.28430717 5.54965365 0.40304165 7.11962891 0.52734375 C8.92538726 0.66309638 10.73414991 0.7579223 12.54296875 0.84375 C13.41566406 0.8953125 14.28835938 0.946875 15.1875 1 C15.91839844 1.03738281 16.64929688 1.07476562 17.40234375 1.11328125 C20.03581857 1.93171846 20.86261725 3.36939653 22.25 5.6875 C22.25 6.3475 22.25 7.0075 22.25 7.6875 C21.4765625 7.4709375 20.703125 7.254375 19.90625 7.03125 C11.2095397 4.70638685 4.23594395 4.31521949 -4.671875 5.46875 C-6.75 5.6875 -6.75 5.6875 -10.75 5.6875 C-10.75 5.0275 -10.75 4.3675 -10.75 3.6875 C-13.39 3.3575 -16.03 3.0275 -18.75 2.6875 C-18.21375 2.56375 -17.6775 2.44 -17.125 2.3125 C-14.67642284 1.72263646 -14.67642284 1.72263646 -12.1484375 0.62890625 C-7.9070382 -0.54601011 -4.34885449 -0.34427861 0 0 Z " fill="#8C8289" transform="translate(480.75,37.3125)"/>
<path d="M0 0 C-0.99 0.495 -0.99 0.495 -2 1 C-2 1.66 -2 2.32 -2 3 C-9.71643408 6.64948279 -16.43405811 8.81451701 -25 9 C-25.33 8.01 -25.66 7.02 -26 6 C-25.34 5.34 -24.68 4.68 -24 4 C-22.68 4 -21.36 4 -20 4 C-19.67 3.34 -19.34 2.68 -19 2 C-12.46069341 -0.94528293 -6.97200116 -1.23696795 0 0 Z " fill="#4E4C4F" transform="translate(441,51)"/>
<path d="M0 0 C1.32 0.66 2.64 1.32 4 2 C3.64172119 2.56509277 3.28344238 3.13018555 2.91430664 3.71240234 C1.29605857 6.26598257 -0.32073769 8.82047885 -1.9375 11.375 C-2.78344727 12.70917969 -2.78344727 12.70917969 -3.64648438 14.0703125 C-4.18466797 14.92109375 -4.72285156 15.771875 -5.27734375 16.6484375 C-5.77484131 17.43395996 -6.27233887 18.21948242 -6.78491211 19.02880859 C-8.02296335 20.97205692 -8.02296335 20.97205692 -9 23 C-9.99 23 -10.98 23 -12 23 C-12 22.34 -12 21.68 -12 21 C-12.66 21 -13.32 21 -14 21 C-14.2475 21.928125 -14.495 22.85625 -14.75 23.8125 C-16.06454245 27.16458325 -16.97963384 28.1877803 -20 30 C-18.58952938 26.1596097 -16.80670018 22.83332823 -14.625 19.375 C-14.03976562 18.43398438 -13.45453125 17.49296875 -12.8515625 16.5234375 C-11.06629296 14.09034863 -9.56040851 12.56996242 -7 11 C-6.34 11 -5.68 11 -5 11 C-4.54625 10.0925 -4.0925 9.185 -3.625 8.25 C-2.69582399 6.39164798 -1.76160342 4.53575403 -0.8125 2.6875 C0.0723026 1.16198564 0.0723026 1.16198564 0 0 Z " fill="#423F42" transform="translate(432,27)"/>
<path d="M0 0 C0 0.99 0 1.98 0 3 C-0.33 3.33 -0.66 3.66 -1 4 C-0.34 4.33 0.32 4.66 1 5 C1.20086443 8.71599191 1.1519437 9.77208445 -1 13 C-1.86625 13.515625 -2.7325 14.03125 -3.625 14.5625 C-4.800625 15.2740625 -4.800625 15.2740625 -6 16 C-6 16.66 -6 17.32 -6 18 C-6.66 18 -7.32 18 -8 18 C-8.20140476 14.37471432 -7.85776765 12.13498292 -6 9 C-7.65 8.67 -9.3 8.34 -11 8 C-10.67 7.01 -10.34 6.02 -10 5 C-7.67328146 4.31060191 -5.33932406 3.64533078 -3 3 C-1.09829946 1.52238341 -1.09829946 1.52238341 0 0 Z " fill="#292527" transform="translate(411,58)"/>
<path d="M0 0 C0.33 1.32 0.66 2.64 1 4 C12.88 4.33 24.76 4.66 37 5 C37.33 3.68 37.66 2.36 38 1 C38.38218767 2.65614657 38.71395102 4.32457024 39 6 C38 7 38 7 34.39819336 7.11352539 C32.79540144 7.11336625 31.1926044 7.10767063 29.58984375 7.09765625 C28.74780899 7.0962413 27.90577423 7.09482635 27.03822327 7.09336853 C24.33794665 7.08775263 21.63775172 7.07519748 18.9375 7.0625 C17.11132932 7.05748705 15.28515734 7.05292379 13.45898438 7.04882812 C8.97262458 7.03777804 4.48632616 7.02050279 0 7 C-0.93423645 3.98968256 -1.04449911 3.13349732 0 0 Z " fill="#0A0A09" transform="translate(108,235)"/>
<path d="M0 0 C0.66 0.99 1.32 1.98 2 3 C1.67 3.99 1.34 4.98 1 6 C0.34 6 -0.32 6 -1 6 C-1.08121094 6.59296875 -1.16242188 7.1859375 -1.24609375 7.796875 C-2.23118234 10.67557949 -3.59207507 11.52462386 -6.0625 13.25 C-6.79597656 13.77078125 -7.52945312 14.2915625 -8.28515625 14.828125 C-8.85105469 15.21484375 -9.41695313 15.6015625 -10 16 C-11.32 15.01 -12.64 14.02 -14 13 C-12.71451591 11.66070495 -11.42141845 10.32871357 -10.125 9 C-9.04605469 7.88625 -9.04605469 7.88625 -7.9453125 6.75 C-6 5 -6 5 -4 5 C-3.67 4.01 -3.34 3.02 -3 2 C-2.01 1.34 -1.02 0.68 0 0 Z " fill="#4C4A4C" transform="translate(398,30)"/>
<path d="M0 0 C0.33 0 0.66 0 1 0 C1 1.65 1 3.3 1 5 C2.32 3.35 3.64 1.7 5 0 C5.66 0.33 6.32 0.66 7 1 C5.02 5.95 3.04 10.9 1 16 C0.67 15.34 0.34 14.68 0 14 C-1.65 14.33 -3.3 14.66 -5 15 C-3.78623966 9.67812773 -2.27376292 4.96093728 0 0 Z " fill="#474347" transform="translate(402,71)"/>
<path d="M0 0 C0 0.33 0 0.66 0 1 C-4.29 1 -8.58 1 -13 1 C-13 1.66 -13 2.32 -13 3 C-22.24 3 -31.48 3 -41 3 C-40.67 2.34 -40.34 1.68 -40 1 C-26.65012592 0.20468835 -13.37293838 -0.12803877 0 0 Z " fill="#19161A" transform="translate(424,113)"/>
<path d="M0 0 C1.485 0.99 1.485 0.99 3 2 C3 2.66 3 3.32 3 4 C3.86278564 3.96447021 4.72557129 3.92894043 5.61450195 3.89233398 C8.81795906 3.76305616 12.02155966 3.63875547 15.2253418 3.51782227 C16.61148768 3.46447778 17.99755889 3.40915441 19.38354492 3.35180664 C21.37658226 3.26968579 23.36993309 3.19528785 25.36328125 3.12109375 C26.56251221 3.0739624 27.76174316 3.02683105 28.99731445 2.97827148 C32 3 32 3 35 4 C35 4.66 35 5.32 35 6 C24.11 6 13.22 6 2 6 C1.34 4.02 0.68 2.04 0 0 Z " fill="#4E4E4E" transform="translate(288,283)"/>
<path d="M0 0 C0 3.10551666 -0.5393715 4.35261084 -2 7 C-1.01 7 -0.02 7 1 7 C-0.15173355 9.46800047 -1.04783565 11.04783565 -3 13 C-3.69748583 14.31747324 -4.36959957 15.64914193 -5 17 C-5.66 16.67 -6.32 16.34 -7 16 C-7.33 16.66 -7.66 17.32 -8 18 C-9.92713818 19.76164986 -11.96823666 21.35729773 -14 23 C-12.66749209 19.4124787 -11.169283 16.1635377 -9 13 C-8.34 13 -7.68 13 -7 13 C-6.89816406 12.43796875 -6.79632813 11.8759375 -6.69140625 11.296875 C-5.86351889 8.54660512 -4.56801382 6.60904126 -2.9375 4.25 C-2.38964844 3.45078125 -1.84179688 2.6515625 -1.27734375 1.828125 C-0.85582031 1.22484375 -0.43429687 0.6215625 0 0 Z " fill="#615F60" transform="translate(432,22)"/>
<path d="M0 0 C7.92 0 15.84 0 24 0 C24 0.66 24 1.32 24 2 C21.49502996 3.25248502 19.79146726 3.11374406 16.9921875 3.09765625 C16.00605469 3.09443359 15.01992188 3.09121094 14.00390625 3.08789062 C12.97136719 3.07951172 11.93882812 3.07113281 10.875 3.0625 C9.31458984 3.05573242 9.31458984 3.05573242 7.72265625 3.04882812 C5.14838038 3.03701952 2.57421854 3.02055075 0 3 C0 2.01 0 1.02 0 0 Z " fill="#1A161A" transform="translate(357,113)"/>
<path d="M0 0 C4 3 4 3 4.40991211 5.57202148 C4.36616455 6.57821533 4.32241699 7.58440918 4.27734375 8.62109375 C4.23287109 9.72130859 4.18839844 10.82152344 4.14257812 11.95507812 C4.07490234 13.10427734 4.00722656 14.25347656 3.9375 15.4375 C3.89689453 16.58283203 3.85628906 17.72816406 3.81445312 18.90820312 C3.39871611 27.46837852 3.39871611 27.46837852 0 32 C0 21.44 0 10.88 0 0 Z " fill="#373737" transform="translate(211,219)"/>
<path d="M0 0 C0.33 0 0.66 0 1 0 C1.77040851 6.06696699 2.09706112 11.88514973 2 18 C1.01 18.33 0.02 18.66 -1 19 C-1.33 16.03 -1.66 13.06 -2 10 C-2.99 9.67 -3.98 9.34 -5 9 C-5 7.02 -5 5.04 -5 3 C-4.360625 2.87625 -3.72125 2.7525 -3.0625 2.625 C-2.0415625 2.315625 -2.0415625 2.315625 -1 2 C-0.67 1.34 -0.34 0.68 0 0 Z " fill="#313031" transform="translate(590,220)"/>
<path d="M0 0 C-0.33 1.98 -0.66 3.96 -1 6 C-5.90243352 7.12514868 -10.80823045 8.18626494 -15.75 9.125 C-16.63171875 9.29257813 -17.5134375 9.46015625 -18.421875 9.6328125 C-20.98613785 9.99802569 -23.41379528 10.06512026 -26 10 C-22.54792524 8.03470991 -19.11523774 7.2253523 -15.25 6.375 C-14.07953125 6.11460938 -12.9090625 5.85421875 -11.703125 5.5859375 C-10.81109375 5.39257812 -9.9190625 5.19921875 -9 5 C-11.97 4.505 -11.97 4.505 -15 4 C-15 3.67 -15 3.34 -15 3 C-13.44033782 2.491217 -11.87710759 1.99336531 -10.3125 1.5 C-9.44238281 1.2215625 -8.57226562 0.943125 -7.67578125 0.65625 C-5.00608323 0.00149195 -2.73603316 -0.11831495 0 0 Z " fill="#6A666A" transform="translate(355,81)"/>
<path d="M0 0 C-2.22508669 2.22508669 -3.11064274 2.43533254 -6.10546875 3.0703125 C-7.33426758 3.33134766 -7.33426758 3.33134766 -8.58789062 3.59765625 C-9.87469727 3.85869141 -9.87469727 3.85869141 -11.1875 4.125 C-12.44530273 4.39763672 -12.44530273 4.39763672 -13.72851562 4.67578125 C-18.58849249 5.68495677 -23.03857711 6.20141094 -28 6 C-27 4 -27 4 -24.55078125 2.9296875 C-16.17393144 0.20140107 -8.78093117 -0.47393332 0 0 Z " fill="#1B181A" transform="translate(350,85)"/>
<path d="M0 0 C0.66 1.32 1.32 2.64 2 4 C1.50628906 4.48210938 1.01257813 4.96421875 0.50390625 5.4609375 C-0.45708984 6.40839844 -0.45708984 6.40839844 -1.4375 7.375 C-2.07558594 8.00148438 -2.71367187 8.62796875 -3.37109375 9.2734375 C-5.07882176 10.91723061 -5.07882176 10.91723061 -6 13 C-8.0625 13.625 -8.0625 13.625 -10 14 C-8.75200979 8.32731724 -7.07503878 5.17442997 -3 1 C-2.01 0.67 -1.02 0.34 0 0 Z " fill="#3B393A" transform="translate(386,43)"/>
<path d="M0 0 C0.33 1.32 0.66 2.64 1 4 C1.66 4 2.32 4 3 4 C1.58707905 8.8274799 -0.42974154 12.7162359 -3 17 C-3.33 16.34 -3.66 15.68 -4 15 C-4.66 15 -5.32 15 -6 15 C-5.39644592 11.14974121 -4.23227397 8.13898841 -2.4375 4.6875 C-1.98246094 3.80449219 -1.52742188 2.92148438 -1.05859375 2.01171875 C-0.53458984 1.01591797 -0.53458984 1.01591797 0 0 Z " fill="#535153" transform="translate(350,89)"/>
<path d="M0 0 C0.99 0.33 1.98 0.66 3 1 C2.505 1.53625 2.01 2.0725 1.5 2.625 C-0.37489544 5.59358445 -0.23501425 7.55312427 0 11 C-2.48806276 12.24403138 -4.23976186 12.06732288 -7 12 C-7.99 12 -8.98 12 -10 12 C-9.360625 11.236875 -8.72125 10.47375 -8.0625 9.6875 C-5.85767219 7.11753287 -5.85767219 7.11753287 -5 4 C-4.34 4 -3.68 4 -3 4 C-3 3.34 -3 2.68 -3 2 C-2.01 2 -1.02 2 0 2 C0 1.34 0 0.68 0 0 Z " fill="#312E31" transform="translate(365,68)"/>
<path d="M0 0 C-3.28467944 2.1897863 -6.17179349 3.02973294 -9.9375 4.1875 C-15.90369355 6.14127989 -15.90369355 6.14127989 -19.875 10.8125 C-20.24625 11.864375 -20.6175 12.91625 -21 14 C-22 12 -22 12 -21.25 9.0625 C-19.72922441 5.33659981 -18.4923074 3.63396975 -14.765625 2.05078125 C-9.65773108 0.55172542 -5.3236651 -0.34719555 0 0 Z " fill="#6C6A6C" transform="translate(375,79)"/>
<path d="M0 0 C0.33 1.32 0.66 2.64 1 4 C-3.48074195 7.36055646 -6.60550707 7.27429625 -12 7 C-11 4 -11 4 -9.2578125 2.83203125 C-8.20207031 2.32736328 -8.20207031 2.32736328 -7.125 1.8125 C-6.42632812 1.46832031 -5.72765625 1.12414062 -5.0078125 0.76953125 C-3 0 -3 0 0 0 Z " fill="#282628" transform="translate(427,14)"/>
<path d="M0 0 C0 0.99 0 1.98 0 3 C-13.6332574 4.33257403 -13.6332574 4.33257403 -20 3 C-20 2.34 -20 1.68 -20 1 C-13.30386804 0.202163 -6.74233419 -0.12910853 0 0 Z " fill="#2E2A2E" transform="translate(330,113)"/>
<path d="M0 0 C0 0.99 0 1.98 0 3 C0.99 4.485 0.99 4.485 2 6 C-2.625 8.125 -2.625 8.125 -6 7 C-7.55853267 6.78196693 -9.12182651 6.59633644 -10.6875 6.4375 C-11.89986328 6.31181641 -11.89986328 6.31181641 -13.13671875 6.18359375 C-13.75160156 6.12300781 -14.36648438 6.06242187 -15 6 C-14 4 -14 4 -10.83984375 2.9296875 C-9.54126339 2.57008063 -8.24033915 2.21885784 -6.9375 1.875 C-6.27427734 1.69324219 -5.61105469 1.51148438 -4.92773438 1.32421875 C-3.28708521 0.87569596 -1.64377551 0.43692614 0 0 Z " fill="#6C6A6C" transform="translate(445,45)"/>
<path d="M0 0 C2.31 0 4.62 0 7 0 C7 0.33 7 0.66 7 1 C9.475 1.495 9.475 1.495 12 2 C12 2.33 12 2.66 12 3 C1.24861632 4.33202984 -9.24861632 4.33202984 -20 3 C-20 2.67 -20 2.34 -20 2 C-13.4 2 -6.8 2 0 2 C0 1.34 0 0.68 0 0 Z " fill="#918E91" transform="translate(316,89)"/>
<path d="M0 0 C0.83144531 0.05671875 1.66289062 0.1134375 2.51953125 0.171875 C4.55544876 0.3122831 6.59035843 0.46717665 8.625 0.625 C8.625 0.955 8.625 1.285 8.625 1.625 C6.94470703 1.60759766 6.94470703 1.60759766 5.23046875 1.58984375 C3.75781417 1.58046378 2.28515778 1.5713638 0.8125 1.5625 C0.07451172 1.55412109 -0.66347656 1.54574219 -1.42382812 1.53710938 C-4.67422068 1.52240172 -7.26904895 1.58968298 -10.375 2.625 C-10.375 3.285 -10.375 3.945 -10.375 4.625 C-8.725 4.295 -7.075 3.965 -5.375 3.625 C-6.035 4.285 -6.695 4.945 -7.375 5.625 C-8.695 5.625 -10.015 5.625 -11.375 5.625 C-11.375 4.965 -11.375 4.305 -11.375 3.625 C-14.015 3.295 -16.655 2.965 -19.375 2.625 C-18.83875 2.50125 -18.3025 2.3775 -17.75 2.25 C-15.30597927 1.66410936 -15.30597927 1.66410936 -12.8125 0.5625 C-8.37687942 -0.6472147 -4.54464612 -0.36241197 0 0 Z " fill="#A8A3A6" transform="translate(481.375,37.375)"/>
<path d="M0 0 C0.66 0.33 1.32 0.66 2 1 C1.67 1.66 1.34 2.32 1 3 C2.98 3 4.96 3 7 3 C3.80009492 5.74277578 0.99500618 7.6302836 -3 9 C-3.66 7.35 -4.32 5.7 -5 4 C-3.35 2.68 -1.7 1.36 0 0 Z " fill="#515051" transform="translate(414,18)"/>
<path d="M0 0 C0.66 0.99 1.32 1.98 2 3 C2.53625 3.515625 3.0725 4.03125 3.625 4.5625 C5 6 5 6 5 8 C5.66 8 6.32 8 7 8 C6 11 6 11 5 13 C4.67 13.99 4.34 14.98 4 16 C2.99539469 13.87717331 1.99644398 11.75166979 1 9.625 C0.443125 8.44164062 -0.11375 7.25828125 -0.6875 6.0390625 C-2 3 -2 3 -2 1 C-1.34 0.67 -0.68 0.34 0 0 Z " fill="#555557" transform="translate(159,267)"/>
<path d="M0 0 C1.22589844 0.15275391 1.22589844 0.15275391 2.4765625 0.30859375 C3.41628906 0.43427734 3.41628906 0.43427734 4.375 0.5625 C3.385 1.0575 3.385 1.0575 2.375 1.5625 C2.375 2.2225 2.375 2.8825 2.375 3.5625 C0.95866664 3.73197579 -0.45808533 3.89795507 -1.875 4.0625 C-3.05835938 4.20171875 -3.05835938 4.20171875 -4.265625 4.34375 C-6.625 4.5625 -6.625 4.5625 -10.625 4.5625 C-10.625 3.9025 -10.625 3.2425 -10.625 2.5625 C-4.375 -0.5625 -4.375 -0.5625 0 0 Z " fill="#232124" transform="translate(436.625,50.4375)"/>
<path d="M0 0 C0 3.74161103 -0.51338171 7.28953557 -1 11 C-1.66 11 -2.32 11 -3 11 C-3 10.34 -3 9.68 -3 9 C-3.66 9 -4.32 9 -5 9 C-5.2475 9.928125 -5.495 10.85625 -5.75 11.8125 C-7.06454245 15.16458325 -7.97963384 16.1877803 -11 18 C-9.5810861 14.10508136 -7.74229459 10.79470749 -5.5 7.3125 C-4.8915625 6.35988281 -4.283125 5.40726563 -3.65625 4.42578125 C-2 2 -2 2 0 0 Z " fill="#191619" transform="translate(423,39)"/>
<path d="M0 0 C1.12438477 0.08507813 1.12438477 0.08507813 2.27148438 0.171875 C4.11926559 0.31310669 5.966012 0.46776167 7.8125 0.625 C7.8125 0.955 7.8125 1.285 7.8125 1.625 C0.8825 3.11 0.8825 3.11 -6.1875 4.625 C-6.1875 3.965 -6.1875 3.305 -6.1875 2.625 C-7.8375 2.955 -9.4875 3.285 -11.1875 3.625 C-11.1875 2.965 -11.1875 2.305 -11.1875 1.625 C-7.31959648 -0.95360235 -4.42136085 -0.38614505 0 0 Z " fill="#5B5459" transform="translate(482.1875,38.375)"/>
<path d="M0 0 C0.99 0.495 0.99 0.495 2 1 C2.33 1.99 2.66 2.98 3 4 C7.12498538 4.02892385 11.24994485 4.04677267 15.375 4.0625 C16.550625 4.07087891 17.72625 4.07925781 18.9375 4.08789062 C20.05898437 4.09111328 21.18046875 4.09433594 22.3359375 4.09765625 C23.37282715 4.10289307 24.4097168 4.10812988 25.47802734 4.11352539 C27.9959668 4.17140815 27.9959668 4.17140815 30 3 C30.66 3.33 31.32 3.66 32 4 C32 4.66 32 5.32 32 6 C22.1 6 12.2 6 2 6 C1.34 4.02 0.68 2.04 0 0 Z " fill="#0C0C0D" transform="translate(165,282)"/>
<path d="M0 0 C1.35158203 0.15275391 1.35158203 0.15275391 2.73046875 0.30859375 C3.41753906 0.39238281 4.10460937 0.47617188 4.8125 0.5625 C4.4825 1.5525 4.1525 2.5425 3.8125 3.5625 C1.96484375 4.29296875 1.96484375 4.29296875 -0.25 4.75 C-0.98347656 4.90855469 -1.71695312 5.06710938 -2.47265625 5.23046875 C-3.32150391 5.39482422 -3.32150391 5.39482422 -4.1875 5.5625 C-4.620625 4.6034375 -4.620625 4.6034375 -5.0625 3.625 C-6.01573451 1.41043921 -6.01573451 1.41043921 -8.1875 0.5625 C-4.98734144 -0.50421952 -3.30205706 -0.38595472 0 0 Z " fill="#5B595B" transform="translate(382.1875,72.4375)"/>
<path d="M0 0 C0.556875 0.28875 1.11375 0.5775 1.6875 0.875 C4.08494645 2.0413253 6.51596939 3.0339881 9 4 C9 4.66 9 5.32 9 6 C11.97 6.495 11.97 6.495 15 7 C12 9 12 9 9.625 8.8125 C6.64282798 7.88944676 4.4948025 6.88795865 2 5 C0.6875 2.3125 0.6875 2.3125 0 0 Z " fill="#848484" transform="translate(278,80)"/>
<path d="M0 0 C3.3 0.33 6.6 0.66 10 1 C10 1.99 10 2.98 10 4 C6.37 4.66 2.74 5.32 -1 6 C-1 5.01 -1 4.02 -1 3 C-0.01 2.67 0.98 2.34 2 2 C1.34 1.34 0.68 0.68 0 0 Z " fill="#676365" transform="translate(460,40)"/>
<path d="M0 0 C0.66 0 1.32 0 2 0 C0.6744419 3.62276315 -0.94346955 6.63505348 -3.125 9.8125 C-3.66382813 10.60269531 -4.20265625 11.39289063 -4.7578125 12.20703125 C-5.16773438 12.79871094 -5.57765625 13.39039063 -6 14 C-6.66 12.68 -7.32 11.36 -8 10 C-7.04367001 8.70684939 -6.08486149 7.41553147 -5.125 6.125 C-4.59132813 5.40570313 -4.05765625 4.68640625 -3.5078125 3.9453125 C-2 2 -2 2 0 0 Z " fill="#363635" transform="translate(689,224)"/>
<path d="M0 0 C6.96327638 -0.33693273 12.43345544 0.6969113 19 3 C19 3.33 19 3.66 19 4 C14.1666528 4.08333357 9.76307437 3.95261487 5 3 C5 2.67 5 2.34 5 2 C3.35 1.67 1.7 1.34 0 1 C0 0.67 0 0.34 0 0 Z " fill="#494948" transform="translate(275,167)"/>
<path d="M0 0 C0.66 0.33 1.32 0.66 2 1 C1.67 1.99 1.34 2.98 1 4 C1.99 4.66 2.98 5.32 4 6 C0.67638732 6.83090317 -1.77646698 7.33387573 -5 6 C-5.66 5.01 -6.32 4.02 -7 3 C-4.69631264 1.93347808 -2.35981813 0.93578995 0 0 Z " fill="#5D5A5C" transform="translate(387,68)"/>
<path d="M0 0 C3 1 3 1 4.23828125 3.3984375 C4.59277344 4.38070312 4.94726562 5.36296875 5.3125 6.375 C5.86357422 7.84066406 5.86357422 7.84066406 6.42578125 9.3359375 C6.61527344 10.21507812 6.80476562 11.09421875 7 12 C6.01 13.485 6.01 13.485 5 15 C4.16013916 13.06532058 3.32831973 11.12714871 2.5 9.1875 C2.0359375 8.10855469 1.571875 7.02960938 1.09375 5.91796875 C0 3 0 3 0 0 Z " fill="#676766" transform="translate(136,218)"/>
<path d="M0 0 C0.33 0 0.66 0 1 0 C1 1.65 1 3.3 1 5 C1.66 5 2.32 5 3 5 C2.45276317 8.37462715 1.9451 10.08235 0 13 C-0.66 13 -1.32 13 -2 13 C-1.39174965 8.65535464 -0.73832608 4.32448133 0 0 Z " fill="#645F62" transform="translate(338,114)"/>
<path d="M0 0 C-0.66 0 -1.32 0 -2 0 C-1.67 1.65 -1.34 3.3 -1 5 C-1.99 5.495 -1.99 5.495 -3 6 C-3.33 4.68 -3.66 3.36 -4 2 C-4.54269531 2.30035156 -5.08539063 2.60070312 -5.64453125 2.91015625 C-6.35996094 3.29042969 -7.07539063 3.67070312 -7.8125 4.0625 C-8.52019531 4.44535156 -9.22789062 4.82820313 -9.95703125 5.22265625 C-12 6 -12 6 -15 5 C-13.06891037 3.96709159 -11.129882 2.94901328 -9.1875 1.9375 C-8.10855469 1.36902344 -7.02960938 0.80054688 -5.91796875 0.21484375 C-3 -1 -3 -1 0 0 Z " fill="#919091" transform="translate(431,12)"/>
<path d="M0 0 C1.32 0.66 2.64 1.32 4 2 C2.85845641 3.83600745 1.71165684 5.66874805 0.5625 7.5 C-0.07558594 8.5209375 -0.71367187 9.541875 -1.37109375 10.59375 C-1.90863281 11.3878125 -2.44617188 12.181875 -3 13 C-3.33 13 -3.66 13 -4 13 C-4.1875 10.6875 -4.1875 10.6875 -4 8 C-3.02149805 6.97895449 -2.02019573 5.9793879 -1 5 C-0.27802838 2.39388923 -0.27802838 2.39388923 0 0 Z " fill="#494647" transform="translate(432,27)"/>
<path d="M0 0 C0.99 0.99 1.98 1.98 3 3 C3.66 2.67 4.32 2.34 5 2 C5 2.66 5 3.32 5 4 C5.66 4.33 6.32 4.66 7 5 C7 6.65 7 8.3 7 10 C6.01 10 5.02 10 4 10 C3.896875 9.360625 3.79375 8.72125 3.6875 8.0625 C3.460625 7.381875 3.23375 6.70125 3 6 C2.01 5.67 1.02 5.34 0 5 C0 3.35 0 1.7 0 0 Z " fill="#141413" transform="translate(272,257)"/>
<path d="M0 0 C1 4 1 4 0 6 C0.45375 5.505 0.9075 5.01 1.375 4.5 C3 3 3 3 5 3 C5.33 2.34 5.66 1.68 6 1 C5.45276317 4.37462715 4.9451 6.08235 3 9 C3 8.34 3 7.68 3 7 C1.35 7.33 -0.3 7.66 -2 8 C-1.34 5.36 -0.68 2.72 0 0 Z " fill="#716B6E" transform="translate(399,78)"/>
<path d="M0 0 C0.66 0 1.32 0 2 0 C2 0.66 2 1.32 2 2 C2.66 2.33 3.32 2.66 4 3 C4 6 4 6 3 8 C2.01 8 1.02 8 0 8 C-1.125 5.6875 -1.125 5.6875 -2 3 C-1.34 2.01 -0.68 1.02 0 0 Z " fill="#544F54" transform="translate(418,48)"/>
<path d="M0 0 C-2.29149113 2.7321625 -3.64386075 3.90028101 -7.125 4.875 C-8.07375 4.91625 -9.0225 4.9575 -10 5 C-10.66 4.34 -11.32 3.68 -12 3 C-10.3789897 2.30314502 -8.75303934 1.61777139 -7.125 0.9375 C-6.22007812 0.55464844 -5.31515625 0.17179687 -4.3828125 -0.22265625 C-2 -1 -2 -1 0 0 Z " fill="#6B6667" transform="translate(401,64)"/>
<path d="M0 0 C0.12375 0.639375 0.2475 1.27875 0.375 1.9375 C0.684375 2.9584375 0.684375 2.9584375 1 4 C1.66 4.33 2.32 4.66 3 5 C1.35 7.31 -0.3 9.62 -2 12 C-2.33 11.34 -2.66 10.68 -3 10 C-2.01 8.68 -1.02 7.36 0 6 C-0.66 5.67 -1.32 5.34 -2 5 C-2 5.66 -2 6.32 -2 7 C-2.66 6.67 -3.32 6.34 -4 6 C-2.68 4.02 -1.36 2.04 0 0 Z " fill="#6A676F" transform="translate(367,63)"/>
<path d="M0 0 C0.66 0.33 1.32 0.66 2 1 C1.38722388 3.96175123 0.74627478 5.38058783 -1 8 C-1.99 8 -2.98 8 -4 8 C-4 4 -4 4 -2 1.75 C-1.01 0.88375 -1.01 0.88375 0 0 Z " fill="#333135" transform="translate(372,59)"/>
<path d="M0 0 C0.99 0 1.98 0 3 0 C3 0.66 3 1.32 3 2 C3.66 2.33 4.32 2.66 5 3 C4.67 3.66 4.34 4.32 4 5 C-1.53846154 5.36923077 -1.53846154 5.36923077 -3.875 3.5 C-4.24625 3.005 -4.6175 2.51 -5 2 C-3.35 2 -1.7 2 0 2 C0 1.34 0 0.68 0 0 Z " fill="#444042" transform="translate(446,45)"/>
<path d="M0 0 C5.28 0 10.56 0 16 0 C16 0.33 16 0.66 16 1 C15.24074219 1.06058594 14.48148437 1.12117187 13.69921875 1.18359375 C12.70535156 1.26738281 11.71148437 1.35117188 10.6875 1.4375 C9.70136719 1.51871094 8.71523438 1.59992188 7.69921875 1.68359375 C4.90624401 1.91812559 4.90624401 1.91812559 2 3 C1.34 3.99 0.68 4.98 0 6 C0 4.02 0 2.04 0 0 Z " fill="#0E0E0E" transform="translate(330,167)"/>
<path d="M0 0 C1.58294782 -0.05437607 3.16644256 -0.09296271 4.75 -0.125 C5.63171875 -0.14820312 6.5134375 -0.17140625 7.421875 -0.1953125 C10.1135858 0.00860498 11.69904974 0.63448279 14 2 C9.02936879 2.91297308 4.97063121 2.91297308 0 2 C0 1.34 0 0.68 0 0 Z " fill="#1B181B" transform="translate(310,114)"/>
<path d="M0 0 C0.33 0.99 0.66 1.98 1 3 C-0.21484375 5.26171875 -0.21484375 5.26171875 -1.9375 7.6875 C-2.50339844 8.49574219 -3.06929688 9.30398437 -3.65234375 10.13671875 C-4.09707031 10.75160156 -4.54179687 11.36648437 -5 12 C-5.33 10.68 -5.66 9.36 -6 8 C-5.01 7.67 -4.02 7.34 -3 7 C-2.87625 6.21625 -2.7525 5.4325 -2.625 4.625 C-2 2 -2 2 0 0 Z " fill="#494949" transform="translate(316,225)"/>
<path d="M0 0 C0.66 0.99 1.32 1.98 2 3 C5.06556598 3.73343428 5.06556598 3.73343428 8 4 C8 4.33 8 4.66 8 5 C2.06 5.495 2.06 5.495 -4 6 C-3 2 -3 2 0 0 Z " fill="#161614" transform="translate(245,184)"/>
<path d="M0 0 C0.99 0 1.98 0 3 0 C2.67 2.31 2.34 4.62 2 7 C1.01 7.33 0.02 7.66 -1 8 C-1.125 2.25 -1.125 2.25 0 0 Z " fill="#3A393B" transform="translate(343,104)"/>
<path d="M0 0 C0.66 0.33 1.32 0.66 2 1 C2.625 3.5625 2.625 3.5625 3 6 C1.8553125 6.1546875 1.8553125 6.1546875 0.6875 6.3125 C-2.17059424 7.04364039 -3.15742885 7.76951913 -5 10 C-3.66511872 6.40608886 -2.03977277 3.24509304 0 0 Z " fill="#181617" transform="translate(433,22)"/>
<path d="M0 0 C0.99 1.32 1.98 2.64 3 4 C2.67 4.66 2.34 5.32 2 6 C1.01 6 0.02 6 -1 6 C-1 6.66 -1 7.32 -1 8 C-1.99 7.67 -2.98 7.34 -4 7 C-2.68 4.69 -1.36 2.38 0 0 Z " fill="#484843" transform="translate(669,208)"/>
<path d="M0 0 C4.62 0 9.24 0 14 0 C13.34 1.32 12.68 2.64 12 4 C11.505 3.690625 11.01 3.38125 10.5 3.0625 C7.02013219 1.58355618 3.75971491 1.37597149 0 1 C0 0.67 0 0.34 0 0 Z " fill="#0C0C0C" transform="translate(711,167)"/>
<path d="M0 0 C0.33 0.66 0.66 1.32 1 2 C1.66 2 2.32 2 3 2 C3 4 3 4 1.125 6.0625 C-1 8 -1 8 -3 9 C-3.26218749 5.85375007 -3.24754367 4.38162983 -1.5 1.6875 C-1.005 1.130625 -0.51 0.57375 0 0 Z " fill="#1B161B" transform="translate(406,67)"/>
<path d="M0 0 C1.98 0.495 1.98 0.495 4 1 C4 1.66 4 2.32 4 3 C5.98 2.67 7.96 2.34 10 2 C6.99382731 5.00617269 4.17618402 4.59585316 0 5 C-0.33 4.01 -0.66 3.02 -1 2 C-0.67 1.34 -0.34 0.68 0 0 Z " fill="#232023" transform="translate(416,55)"/>
<path d="M0 0 C0.66 0.99 1.32 1.98 2 3 C1.67 3.99 1.34 4.98 1 6 C0.34 6 -0.32 6 -1 6 C-1.33 6.99 -1.66 7.98 -2 9 C-2 7.68 -2 6.36 -2 5 C-2.66 5 -3.32 5 -4 5 C-3 2 -3 2 0 0 Z " fill="#636163" transform="translate(398,30)"/>
<path d="M0 0 C0 0.66 0 1.32 0 2 C1.32 2.33 2.64 2.66 4 3 C1 5 1 5 -1.6875 4.625 C-2.450625 4.41875 -3.21375 4.2125 -4 4 C-4 3.01 -4 2.02 -4 1 C-2 0 -2 0 0 0 Z " fill="#252326" transform="translate(433,11)"/>
<path d="M0 0 C4.97631579 4.81578947 4.97631579 4.81578947 5.0625 9.125 C5.041875 10.07375 5.02125 11.0225 5 12 C2.65085508 9.65085508 2.26859643 8.04320554 1.375 4.875 C1.11460937 3.96492187 0.85421875 3.05484375 0.5859375 2.1171875 C0.39257812 1.41851562 0.19921875 0.71984375 0 0 Z " fill="#707070" transform="translate(130,204)"/>
<path d="M0 0 C0 3.19610552 -0.54671542 4.41717626 -2 7.1875 C-2.37125 7.90292969 -2.7425 8.61835937 -3.125 9.35546875 C-3.41375 9.89816406 -3.7025 10.44085938 -4 11 C-5.27115705 7.18652885 -4.54905091 5.64026964 -3 2 C-2.01 1.34 -1.02 0.68 0 0 Z " fill="#151315" transform="translate(355,85)"/>
<path d="M0 0 C0.33 0.99 0.66 1.98 1 3 C-0.65 3.66 -2.3 4.32 -4 5 C-4 5.66 -4 6.32 -4 7 C-5.65 6.67 -7.3 6.34 -9 6 C-8.34 5.67 -7.68 5.34 -7 5 C-6.67 4.01 -6.34 3.02 -6 2 C-4.02 2 -2.04 2 0 2 C0 1.34 0 0.68 0 0 Z " fill="#2A2829" transform="translate(395,66)"/>
<path d="M0 0 C0.99 0 1.98 0 3 0 C4.33333333 1.33333333 5.66666667 2.66666667 7 4 C6.01 5.32 5.02 6.64 4 8 C2.68 5.36 1.36 2.72 0 0 Z " fill="#656565" transform="translate(637,226)"/>
<path d="M0 0 C2.375 -0.125 2.375 -0.125 5 0 C5.66 0.66 6.32 1.32 7 2 C6.67 2.99 6.34 3.98 6 5 C5.34 5 4.68 5 4 5 C2.37485532 6.45833358 2.37485532 6.45833358 1 8 C1.20625 7.05125 1.4125 6.1025 1.625 5.125 C1.74875 4.09375 1.8725 3.0625 2 2 C1.34 1.34 0.68 0.68 0 0 Z " fill="#4E4D4F" transform="translate(433,12)"/>
<path d="M0 0 C0.99 0 1.98 0 3 0 C3 0.99 3 1.98 3 3 C3.66 2.67 4.32 2.34 5 2 C5 4.31 5 6.62 5 9 C1.9083091 6.47043472 1.09068668 3.77545388 0 0 Z " fill="#414141" transform="translate(602,167)"/>
<path d="M0 0 C1.32 0 2.64 0 4 0 C4 0.66 4 1.32 4 2 C4.99 2.33 5.98 2.66 7 3 C3.71303767 3.79953138 2.28976808 4.09658936 -1 3 C-0.67 2.01 -0.34 1.02 0 0 Z " fill="#1F1C1E" transform="translate(372,74)"/>
<path d="M0 0 C2.31 0.33 4.62 0.66 7 1 C6.01 1.495 6.01 1.495 5 2 C5 2.66 5 3.32 5 4 C3.35 4.33 1.7 4.66 0 5 C-0.33 4.01 -0.66 3.02 -1 2 C-0.67 1.34 -0.34 0.68 0 0 Z " fill="#454345" transform="translate(434,50)"/>
<path d="M0 0 C0.99 0.33 1.98 0.66 3 1 C2.34 1 1.68 1 1 1 C1 1.99 1 2.98 1 4 C0.34 4 -0.32 4 -1 4 C-1 4.66 -1 5.32 -1 6 C-2.32 5.67 -3.64 5.34 -5 5 C-5 4.34 -5 3.68 -5 3 C-3.35 2.67 -1.7 2.34 0 2 C0 1.34 0 0.68 0 0 Z " fill="#131311" transform="translate(668,214)"/>
<path d="M0 0 C0.66 0.33 1.32 0.66 2 1 C1.360625 1.433125 0.72125 1.86625 0.0625 2.3125 C-2.26746003 3.91239177 -2.26746003 3.91239177 -3 7 C-4.65 7 -6.3 7 -8 7 C-7.34 6.67 -6.68 6.34 -6 6 C-6 5.34 -6 4.68 -6 4 C-4.03852126 2.61061923 -2.03833424 1.2739589 0 0 Z " fill="#8C8B8B" transform="translate(407,23)"/>
<path d="M0 0 C0.33 0.66 0.66 1.32 1 2 C0.06421005 4.35981813 -0.93347808 6.69631264 -2 9 C-2.33 9 -2.66 9 -3 9 C-3.1875 5.625 -3.1875 5.625 -3 2 C-2.01 1.34 -1.02 0.68 0 0 Z " fill="#787877" transform="translate(121,208)"/>
<path d="M0 0 C0.8125 1.6875 0.8125 1.6875 1 4 C-1.4375 6.75 -1.4375 6.75 -4 9 C-4 5.00095031 -2.27413033 3.19799578 0 0 Z " fill="#4A4A48" transform="translate(695,167)"/>
<path d="M0 0 C3.3 0 6.6 0 10 0 C7.60236815 2.39763185 6.66726502 2.34280586 3.375 2.625 C2.55773437 2.69976562 1.74046875 2.77453125 0.8984375 2.8515625 C0.27195312 2.90054688 -0.35453125 2.94953125 -1 3 C-0.67 2.01 -0.34 1.02 0 0 Z " fill="#110F11" transform="translate(340,85)"/>
<path d="M0 0 C2 1.625 2 1.625 4 4 C4.25 7.25 4.25 7.25 4 10 C2 9 2 9 0.875 6.6875 C0 4 0 4 0 0 Z " fill="#161616" transform="translate(168,225)"/>
<path d="M0 0 C2.50298434 2.93828597 3.46930939 5.17902761 4 9 C3.01 8.67 2.02 8.34 1 8 C0.67 5.36 0.34 2.72 0 0 Z " fill="#323232" transform="translate(154,193)"/>
<path d="M0 0 C0.99 0 1.98 0 3 0 C1.92598892 2.91517292 1.22189824 4.77810176 -1 7 C-1.625 5.1875 -1.625 5.1875 -2 3 C-1.34 2.01 -0.68 1.02 0 0 Z " fill="#676767" transform="translate(698,208)"/>
<path d="M0 0 C2.31 0.33 4.62 0.66 7 1 C6.67 1.99 6.34 2.98 6 4 C4.35 4 2.7 4 1 4 C0.67 2.68 0.34 1.36 0 0 Z " fill="#282427" transform="translate(380,72)"/>
<path d="M0 0 C-2.63904371 1.41377341 -5.07120629 2.37240135 -8 3 C-8 2.01 -8 1.02 -8 0 C-4.71023192 -1.09658936 -3.28696233 -0.79953138 0 0 Z " fill="#555555" transform="translate(399,70)"/>
</svg>
