<?xml version="1.0" encoding="UTF-8"?>
<svg version="1.1" xmlns="http://www.w3.org/2000/svg" width="908" height="420">
<path d="M0 0 C0.77537109 0.19384277 1.55074219 0.38768555 2.34960938 0.58740234 C10.57624305 2.67555027 18.23469005 5.60658037 26 9 C27.91629109 9.77176655 29.83296413 10.54258532 31.75 11.3125 C39.36218987 14.47246741 46.66458017 18.25350873 54 22 C54.66 22.33 55.32 22.66 56 23 C56 23.66 56 24.32 56 25 C56.804375 25.20625 57.60875 25.4125 58.4375 25.625 C63.13528193 27.43817899 66.89883906 30.11204422 71 33 C71.84304688 33.58523437 72.68609375 34.17046875 73.5546875 34.7734375 C75.24878738 35.95261341 76.93900427 37.13739051 78.625 38.328125 C80.1371745 39.39261626 81.65727078 40.44600517 83.1875 41.484375 C84.82609531 42.60760566 86.41899427 43.79706086 88 45 C88 45.66 88 46.32 88 47 C88.598125 47.103125 89.19625 47.20625 89.8125 47.3125 C92.31258286 48.09824033 93.37535082 48.96918853 95 51 C95 51.66 95 52.32 95 53 C96.32 53.33 97.64 53.66 99 54 C99 54.66 99 55.32 99 56 C99.66 56 100.32 56 101 56 C102.625 57.375 102.625 57.375 104 59 C104 59.66 104 60.32 104 61 C104.66 61 105.32 61 106 61 C106 61.66 106 62.32 106 63 C106.66 63 107.32 63 108 63 C108.33 64.32 108.66 65.64 109 67 C109.60328125 67.09410156 110.2065625 67.18820313 110.828125 67.28515625 C113.49823228 68.16398652 114.19774496 69.133072 115.75 71.4375 C116.39195312 72.36369141 116.39195312 72.36369141 117.046875 73.30859375 C118 75 118 75 118 77 C118.66 77 119.32 77 120 77 C120 77.66 120 78.32 120 79 C120.66 79 121.32 79 122 79 C122 79.66 122 80.32 122 81 C122.66 81 123.32 81 124 81 C126.17204 83.96187272 127.83561997 86.50685991 129 90 C129.66 90 130.32 90 131 90 C133.04169485 92.90548882 134 94.40142046 134 98 C148.19 98.33 162.38 98.66 177 99 C177.33 99.99 177.66 100.98 178 102 C177.67 102.66 177.34 103.32 177 104 C176.34 104 175.68 104 175 104 C175 105.32 175 106.64 175 108 C174.34 108 173.68 108 173 108 C172.87625 108.886875 172.7525 109.77375 172.625 110.6875 C172.05587264 113.70387502 171.23385564 116.20326054 170 119 C169.34 119 168.68 119 168 119 C168 120.32 168 121.64 168 123 C167.34 123 166.68 123 166 123 C166 124.32 166 125.64 166 127 C165.34 127 164.68 127 164 127 C163.87625 128.051875 163.7525 129.10375 163.625 130.1875 C163.08859218 133.45958771 162.36119965 136.00536076 161 139 C160.34 139 159.68 139 159 139 C159.144375 140.258125 159.28875 141.51625 159.4375 142.8125 C159.51871094 143.52019531 159.59992188 144.22789062 159.68359375 144.95703125 C159.97170735 147.19396393 159.97170735 147.19396393 161 150 C161.66 150 162.32 150 163 150 C164.1577506 153.47325181 164.06866652 156.36067448 164 160 C164.66 160 165.32 160 166 160 C166 162.31 166 164.62 166 167 C166.66 167 167.32 167 168 167 C168.65003625 169.20709983 169.29484745 171.41573892 169.9375 173.625 C170.29714844 174.85476562 170.65679688 176.08453125 171.02734375 177.3515625 C172.52602828 182.97313419 173.12185899 188.05781934 173.0625 193.875 C173.05347656 195.02742187 173.04445313 196.17984375 173.03515625 197.3671875 C173.01775391 198.67042969 173.01775391 198.67042969 173 200 C173.66 200 174.32 200 175 200 C175.06058594 201.04800781 175.12117187 202.09601563 175.18359375 203.17578125 C175.26801738 204.55470048 175.35266447 205.93360605 175.4375 207.3125 C175.47681641 208.00279297 175.51613281 208.69308594 175.55664062 209.40429688 C175.74927415 212.47161535 176.02322717 215.06968152 177 218 C176.34 218 175.68 218 175 218 C175 218.99 175 219.98 175 221 C176.18078125 220.97679687 177.3615625 220.95359375 178.578125 220.9296875 C180.13541033 220.91092503 181.69270252 220.89272534 183.25 220.875 C184.02730469 220.85824219 184.80460938 220.84148437 185.60546875 220.82421875 C186.35957031 220.81777344 187.11367188 220.81132812 187.890625 220.8046875 C188.58188477 220.79421387 189.27314453 220.78374023 189.98535156 220.77294922 C192 221 192 221 196 223 C196 249.73 196 276.46 196 304 C203.26 304.33 210.52 304.66 218 305 C218 317.87 218 330.74 218 344 C210.74 344 203.48 344 196 344 C196 356.87 196 369.74 196 383 C203.59 383 211.18 383 219 383 C219 383.66 219 384.32 219 385 C219.66 385 220.32 385 221 385 C221 385.99 221 386.98 221 388 C220.34 388 219.68 388 219 388 C219 388.66 219 389.32 219 390 C215.68407365 391.65796318 211.97704593 391.13734701 208.33169746 391.12863445 C207.41886637 391.13038749 206.50603528 391.13214053 205.56554264 391.13394669 C202.47232007 391.13864021 199.37914381 391.13613263 196.28591919 391.13371277 C194.05965126 391.13557906 191.83338366 391.13787903 189.60711658 391.14057809 C183.46250416 391.14672504 177.31790529 391.14655911 171.17329049 391.14538372 C165.23560758 391.14520129 159.2979287 391.14968436 153.36024776 391.1539966 C139.70898746 391.16368339 126.0577309 391.16648134 112.40646757 391.16705366 C101.86688303 391.16751265 91.32729997 391.16956807 80.78771591 391.17275429 C77.75738013 391.17365179 74.72704435 391.1745416 71.69670856 391.17542917 C70.56678379 391.17576074 70.56678379 391.17576074 69.41403227 391.17609901 C48.21642654 391.18225593 27.01882133 391.1861993 5.82121468 391.18575573 C4.62164722 391.18573236 4.62164722 391.18573236 3.39784609 391.18570852 C-0.65571702 391.18562541 -4.70928013 391.18552637 -8.76284324 391.18542381 C-9.56794119 391.18540387 -10.37303914 391.18538392 -11.202534 391.18536337 C-12.83063925 391.18532294 -14.45874451 391.18528114 -16.08684977 391.18523798 C-41.4229772 391.18462509 -66.75909125 391.19213314 -92.09521484 391.20581055 C-120.53920832 391.22115926 -148.98319301 391.2297775 -177.4271909 391.22884732 C-180.45815539 391.22877269 -183.48911989 391.22872399 -186.52008438 391.22869301 C-187.63959223 391.22867553 -187.63959223 391.22867553 -188.7817164 391.22865769 C-200.81100257 391.22862687 -212.84027715 391.23502252 -224.86955987 391.24362527 C-236.95194786 391.25208749 -249.03431884 391.25310297 -261.11670814 391.24651595 C-267.66694174 391.24313778 -274.21714164 391.24324055 -280.76737213 391.2518692 C-286.7567297 391.25967816 -292.74601136 391.25836071 -298.73536696 391.24958507 C-300.90898475 391.24803762 -303.08260806 391.24991248 -305.25621937 391.25544515 C-308.19757825 391.26243963 -311.13866595 391.25726357 -314.08001518 391.24888897 C-314.93528197 391.25385715 -315.79054876 391.25882533 -316.67173272 391.26394406 C-323.74558458 391.22099761 -323.74558458 391.22099761 -327 389 C-327 387.68 -327 386.36 -327 385 C-326.34 385 -325.68 385 -325 385 C-325 384.34 -325 383.68 -325 383 C-308.83 382.67 -292.66 382.34 -276 382 C-275.0015203 378.00608118 -274.87238476 374.46072144 -274.90234375 370.390625 C-274.9037587 369.66381531 -274.90517365 368.93700562 -274.90663147 368.18817139 C-274.91221208 365.87540506 -274.92476096 363.56273688 -274.9375 361.25 C-274.94251751 359.67838682 -274.94707998 358.10677211 -274.95117188 356.53515625 C-274.96217515 352.69006657 -274.97942639 348.8450499 -275 345 C-275.88505219 344.98969254 -276.77010437 344.97938507 -277.68197632 344.96876526 C-286.01075816 344.87090733 -294.33946707 344.76840973 -302.66812706 344.66066074 C-306.95027441 344.60542678 -311.23242858 344.55200602 -315.51464844 344.50268555 C-319.64493488 344.45504897 -323.77513701 344.40270642 -327.90532303 344.34705925 C-329.48340387 344.32663249 -331.06150783 344.30791994 -332.63962936 344.29092598 C-334.84496189 344.26688903 -337.05013451 344.23683366 -339.25537109 344.20532227 C-340.51223724 344.18977798 -341.76910339 344.1742337 -343.0640564 344.15821838 C-346 344 -346 344 -348 343 C-348.09975053 338.05621051 -348.17187902 333.11302178 -348.21972656 328.16845703 C-348.23969699 326.49061869 -348.26688332 324.81284864 -348.30175781 323.13525391 C-348.49705452 313.49104299 -348.40580585 305.79152444 -344 297 C-343.63137521 295.67598918 -343.2866598 294.34414101 -343 293 C-342.34 293 -341.68 293 -341 293 C-340.855625 292.401875 -340.71125 291.80375 -340.5625 291.1875 C-340.1127561 289.43849596 -339.57107659 287.71322977 -339 286 C-338.34 286 -337.68 286 -337 286 C-336.9175 284.845 -336.835 283.69 -336.75 282.5 C-336.18513317 277.77872502 -334.33831147 274.0893261 -332 270 C-331.34 270 -330.68 270 -330 270 C-329.87625 268.948125 -329.7525 267.89625 -329.625 266.8125 C-329.08859218 263.54041229 -328.36119965 260.99463924 -327 258 C-326.34 258 -325.68 258 -325 258 C-325 256.68 -325 255.36 -325 254 C-324.34 254 -323.68 254 -323 254 C-323 252.68 -323 251.36 -323 250 C-322.34 250 -321.68 250 -321 250 C-320.87625 248.9275 -320.7525 247.855 -320.625 246.75 C-320.10356064 243.62136385 -319.59911746 241.66519576 -318 239 C-317.34 239 -316.68 239 -316 239 C-316 237.68 -316 236.36 -316 235 C-315.34 235 -314.68 235 -314 235 C-313.505 231.04 -313.505 231.04 -313 227 C-312.34 227 -311.68 227 -311 227 C-311 225.68 -311 224.36 -311 223 C-310.34 223 -309.68 223 -309 223 C-309 221.68 -309 220.36 -309 219 C-308.34 219 -307.68 219 -307 219 C-306.896875 218.01 -306.79375 217.02 -306.6875 216 C-306.28598817 213.08176546 -305.65545718 211.16017687 -304.5 208.34375 C-302.72469803 203.73917732 -302.45204701 199.39610637 -302.3125 194.5 C-302.27833984 193.67757812 -302.24417969 192.85515625 -302.20898438 192.0078125 C-302.1275012 190.0056545 -302.06205425 188.00285432 -302 186 C-301.34 186 -300.68 186 -300 186 C-300 183.69 -300 181.38 -300 179 C-299.34 179 -298.68 179 -298 179 C-297.96261719 178.2265625 -297.92523438 177.453125 -297.88671875 176.65625 C-297.47475611 170.12946936 -296.53089424 165.01087381 -294 159 C-293.62033354 157.34327363 -293.26239024 155.67929755 -293 154 C-292.34 154 -291.68 154 -291 154 C-290.87625 152.783125 -290.7525 151.56625 -290.625 150.3125 C-290.21108694 146.93520941 -289.45426549 144.10243305 -288 141 C-287.34 141 -286.68 141 -286 141 C-285.855625 140.2575 -285.71125 139.515 -285.5625 138.75 C-285.09812508 136.47972261 -284.58136431 134.24240521 -284 132 C-283.34 132 -282.68 132 -282 132 C-281.67 129.69 -281.34 127.38 -281 125 C-280.34 125 -279.68 125 -279 125 C-278.855625 124.401875 -278.71125 123.80375 -278.5625 123.1875 C-278.1127561 121.43849596 -277.57107659 119.71322977 -277 118 C-276.34 118 -275.68 118 -275 118 C-274.67 116.02 -274.34 114.04 -274 112 C-273.34 112 -272.68 112 -272 112 C-272 111.01 -272 110.02 -272 109 C-271.34 109 -270.68 109 -270 109 C-270 108.01 -270 107.02 -270 106 C-269.34 106 -268.68 106 -268 106 C-267.9175 105.484375 -267.835 104.96875 -267.75 104.4375 C-266.67859775 100.95544268 -264.86476395 98.12799115 -263 95 C-262.34 95 -261.68 95 -261 95 C-261 94.01 -261 93.02 -261 92 C-260.34 92 -259.68 92 -259 92 C-258.5359375 90.824375 -258.5359375 90.824375 -258.0625 89.625 C-257 87 -257 87 -256 85 C-255.34 85 -254.68 85 -254 85 C-254 84.34 -254 83.68 -254 83 C-253.34 83 -252.68 83 -252 83 C-251.505 81.02 -251.505 81.02 -251 79 C-250.34 79 -249.68 79 -249 79 C-249 78.34 -249 77.68 -249 77 C-248.34 77 -247.68 77 -247 77 C-246.34 75.35 -245.68 73.7 -245 72 C-244.34 72 -243.68 72 -243 72 C-242.505 70.02 -242.505 70.02 -242 68 C-241.38125 67.9175 -240.7625 67.835 -240.125 67.75 C-237.83911206 67.19416524 -237.83911206 67.19416524 -236.8125 65.0625 C-236.544375 64.381875 -236.27625 63.70125 -236 63 C-235.67 62.34 -235.34 61.68 -235 61 C-234.34 61 -233.68 61 -233 61 C-233 60.34 -233 59.68 -233 59 C-231.68 58.67 -230.36 58.34 -229 58 C-229 57.34 -229 56.68 -229 56 C-228.34 56 -227.68 56 -227 56 C-226.67 55.01 -226.34 54.02 -226 53 C-225.34 53 -224.68 53 -224 53 C-224 52.34 -224 51.68 -224 51 C-223.360625 50.71125 -222.72125 50.4225 -222.0625 50.125 C-219.84793921 49.17176549 -219.84793921 49.17176549 -219 47 C-218.34 47 -217.68 47 -217 47 C-217 46.34 -217 45.68 -217 45 C-213.50344613 42.3979134 -210.10839064 40.45002023 -206 39 C-206 38.34 -206 37.68 -206 37 C-201.61538462 34 -201.61538462 34 -199 34 C-199 33.34 -199 32.68 -199 32 C-192.25 28 -192.25 28 -190 28 C-190 27.34 -190 26.68 -190 26 C-187.525 25.505 -187.525 25.505 -185 25 C-185 24.34 -185 23.68 -185 23 C-155.52967873 7.91213605 -124.49049897 -4.2840933 -91.14501953 -6.82739258 C-89.58717804 -6.95275041 -88.03093678 -7.09851862 -86.47607422 -7.2565918 C-57.24230669 -10.20196064 -28.36628194 -7.18851608 0 0 Z M-265 371 C-265.02688151 372.64574566 -265.04634123 374.29161413 -265.0625 375.9375 C-265.07410156 376.85402344 -265.08570313 377.77054687 -265.09765625 378.71484375 C-265.25949049 380.96593327 -265.25949049 380.96593327 -264 382 C-259.85723125 382.24733137 -259.85723125 382.24733137 -256 381 C-256 380.34 -256 379.68 -256 379 C-256.66 379 -257.32 379 -258 379 C-258.33 377.02 -258.66 375.04 -259 373 C-260.98 372.34 -262.96 371.68 -265 371 Z M132 373 C131.67 375.97 131.34 378.94 131 382 C133.475 382.495 133.475 382.495 136 383 C136.22036864 379.14354879 135.60355101 376.50776784 134 373 C133.34 373 132.68 373 132 373 Z M147 378 C147 379.32 147 380.64 147 382 C148.65 382 150.3 382 152 382 C151.67 380.68 151.34 379.36 151 378 C149.68 378 148.36 378 147 378 Z " fill="#FCF1B5" transform="translate(521,24)"/>
<path d="M0 0 C0 0.66 0 1.32 0 2 C0.62648438 2.08636719 1.25296875 2.17273438 1.8984375 2.26171875 C2.71570313 2.40222656 3.53296875 2.54273438 4.375 2.6875 C5.18710937 2.81511719 5.99921875 2.94273437 6.8359375 3.07421875 C9 4 9 4 10.25415039 6.29052734 C11 9 11 9 10.36743164 11.09350586 C9.94840576 11.81417236 9.52937988 12.53483887 9.09765625 13.27734375 C6.65732084 17.7420577 4.46098253 22.24359598 2.37109375 26.87890625 C2.05226227 27.58139496 1.73343079 28.28388367 1.40493774 29.00765991 C0.41391801 31.19176273 -0.57429724 33.37712144 -1.5625 35.5625 C-2.22834755 37.03067519 -2.8943622 38.49877462 -3.56054688 39.96679688 C-6.10223157 45.57159125 -8.64299442 51.17660213 -11.1328125 56.8046875 C-13.46939285 62.08320921 -15.89753587 67.31951339 -18.3125 72.5625 C-24.14675066 85.26543604 -29.91242948 97.97581948 -35 111 C-31.37 111 -27.74 111 -24 111 C-24.37125 109.205625 -24.37125 109.205625 -24.75 107.375 C-25.15856953 103.94789438 -24.94552692 102.86736989 -23.5625 99.5 C-20.94288791 96.94428089 -20.43327293 96.53236263 -17 96.25 C-13.57293878 96.53132592 -13.08012405 96.91987595 -10.5 99.5 C-8.66950957 103.77114435 -8.68307117 106.40453192 -9 111 C-4.71 111 -0.42 111 4 111 C4 112.98 4 114.96 4 117 C3.34 117 2.68 117 2 117 C2 120.3 2 123.6 2 127 C10.91 127 19.82 127 29 127 C29 99.94 29 72.88 29 45 C42.0042728 45 55.01370132 45.3165106 68 46 C68 73.06 68 100.12 68 128 C76.25 128 84.5 128 93 128 C93 140.87 93 153.74 93 167 C85.74 167 78.48 167 71 167 C71 179.87 71 192.74 71 206 C78.59 206 86.18 206 94 206 C94 206.66 94 207.32 94 208 C94.66 208 95.32 208 96 208 C96 208.99 96 209.98 96 211 C95.34 211 94.68 211 94 211 C94 211.66 94 212.32 94 213 C90.68407365 214.65796318 86.97704593 214.13734701 83.33169746 214.12863445 C82.41886637 214.13038749 81.50603528 214.13214053 80.56554264 214.13394669 C77.47232007 214.13864021 74.37914381 214.13613263 71.28591919 214.13371277 C69.05965126 214.13557906 66.83338366 214.13787903 64.60711658 214.14057809 C58.46250416 214.14672504 52.31790529 214.14655911 46.17329049 214.14538372 C40.23560758 214.14520129 34.2979287 214.14968436 28.36024776 214.1539966 C14.70898746 214.16368339 1.0577309 214.16648134 -12.59353243 214.16705366 C-23.13311697 214.16751265 -33.67270003 214.16956807 -44.21228409 214.17275429 C-47.24261987 214.17365179 -50.27295565 214.1745416 -53.30329144 214.17542917 C-54.43321621 214.17576074 -54.43321621 214.17576074 -55.58596773 214.17609901 C-76.78357346 214.18225593 -97.98117867 214.1861993 -119.17878532 214.18575573 C-120.37835278 214.18573236 -120.37835278 214.18573236 -121.60215391 214.18570852 C-125.65571702 214.18562541 -129.70928013 214.18552637 -133.76284324 214.18542381 C-134.56794119 214.18540387 -135.37303914 214.18538392 -136.202534 214.18536337 C-137.83063925 214.18532294 -139.45874451 214.18528114 -141.08684977 214.18523798 C-166.4229772 214.18462509 -191.75909125 214.19213314 -217.09521484 214.20581055 C-245.53920832 214.22115926 -273.98319301 214.2297775 -302.4271909 214.22884732 C-305.45815539 214.22877269 -308.48911989 214.22872399 -311.52008438 214.22869301 C-312.63959223 214.22867553 -312.63959223 214.22867553 -313.7817164 214.22865769 C-325.81100257 214.22862687 -337.84027715 214.23502252 -349.86955987 214.24362527 C-361.95194786 214.25208749 -374.03431884 214.25310297 -386.11670814 214.24651595 C-392.66694174 214.24313778 -399.21714164 214.24324055 -405.76737213 214.2518692 C-411.7567297 214.25967816 -417.74601136 214.25836071 -423.73536696 214.24958507 C-425.90898475 214.24803762 -428.08260806 214.24991248 -430.25621937 214.25544515 C-433.19757825 214.26243963 -436.13866595 214.25726357 -439.08001518 214.24888897 C-440.36291537 214.25634124 -440.36291537 214.25634124 -441.67173272 214.26394406 C-448.74558458 214.22099761 -448.74558458 214.22099761 -452 212 C-452 210.68 -452 209.36 -452 208 C-451.34 208 -450.68 208 -450 208 C-450 207.34 -450 206.68 -450 206 C-433.83 205.67 -417.66 205.34 -401 205 C-400.0015203 201.00608118 -399.87238476 197.46072144 -399.90234375 193.390625 C-399.9037587 192.66381531 -399.90517365 191.93700562 -399.90663147 191.18817139 C-399.91221208 188.87540506 -399.92476096 186.56273688 -399.9375 184.25 C-399.94251751 182.67838682 -399.94707998 181.10677211 -399.95117188 179.53515625 C-399.96217515 175.69006657 -399.97942639 171.8450499 -400 168 C-401.32757828 167.9845388 -401.32757828 167.9845388 -402.68197632 167.96876526 C-411.01075816 167.87090733 -419.33946707 167.76840973 -427.66812706 167.66066074 C-431.95027441 167.60542678 -436.23242858 167.55200602 -440.51464844 167.50268555 C-444.64493488 167.45504897 -448.77513701 167.40270642 -452.90532303 167.34705925 C-454.48340387 167.32663249 -456.06150783 167.30791994 -457.63962936 167.29092598 C-459.84496189 167.26688903 -462.05013451 167.23683366 -464.25537109 167.20532227 C-466.14067032 167.18200584 -466.14067032 167.18200584 -468.0640564 167.15821838 C-471 167 -471 167 -473 166 C-473.09975053 161.05621051 -473.17187902 156.11302178 -473.21972656 151.16845703 C-473.23969699 149.49061869 -473.26688332 147.81284864 -473.30175781 146.13525391 C-473.49705452 136.49104299 -473.40580585 128.79152444 -469 120 C-468.63137521 118.67598918 -468.2866598 117.34414101 -468 116 C-467.34 116 -466.68 116 -466 116 C-465.855625 115.401875 -465.71125 114.80375 -465.5625 114.1875 C-465.1127561 112.43849596 -464.57107659 110.71322977 -464 109 C-463.34 109 -462.68 109 -462 109 C-461.9175 107.845 -461.835 106.69 -461.75 105.5 C-461.18513317 100.77872502 -459.33831147 97.0893261 -457 93 C-456.34 93 -455.68 93 -455 93 C-454.87625 91.948125 -454.7525 90.89625 -454.625 89.8125 C-454.08859218 86.54041229 -453.36119965 83.99463924 -452 81 C-451.34 81 -450.68 81 -450 81 C-450 79.68 -450 78.36 -450 77 C-449.34 77 -448.68 77 -448 77 C-448 75.68 -448 74.36 -448 73 C-447.34 73 -446.68 73 -446 73 C-445.814375 71.39125 -445.814375 71.39125 -445.625 69.75 C-444.75609756 64.53658537 -444.75609756 64.53658537 -443 62 C-440 61 -440 61 -437.80078125 61.92578125 C-436.97964844 62.38339844 -436.15851563 62.84101563 -435.3125 63.3125 C-424.35488558 69.01299305 -414.05953429 68.58157827 -402 67 C-402.63357763 71.05480352 -403.94208707 74.34822719 -405.6953125 78.05078125 C-406.24316406 79.21681885 -406.79101562 80.38285645 -407.35546875 81.58422852 C-407.78931885 82.49822922 -407.78931885 82.49822922 -408.23193359 83.43069458 C-409.73088672 86.58918099 -411.21225828 89.75590043 -412.6953125 92.921875 C-412.98593567 93.54115372 -413.27655884 94.16043243 -413.57598877 94.79847717 C-416.30490535 100.62419665 -418.8994181 106.49946008 -421.4375 112.41015625 C-423.5656936 117.29968105 -425.79335294 122.14537648 -428 127 C-418.43 127 -408.86 127 -399 127 C-399.165 122.50375 -399.33 118.0075 -399.5 113.375 C-400.13565604 94.58385363 -400.10009552 75.79947879 -400 57 C-397.03 57 -394.06 57 -391 57 C-391.05800781 56.3709375 -391.11601562 55.741875 -391.17578125 55.09375 C-391.4728661 49.45762592 -391.08844381 45.14294945 -387.76171875 40.453125 C-384.79773292 38.00832959 -382.03992254 38.02313681 -378.31640625 38.3671875 C-376 39 -376 39 -373.375 41.25 C-371.39068505 46.66176804 -371.74444382 51.24998588 -372 57 C-366.72 57 -361.44 57 -356 57 C-356 53.04 -356 49.08 -356 45 C-343.13 45 -330.26 45 -317 45 C-317 48.96 -317 52.92 -317 57 C-316.34 57 -315.68 57 -315 57 C-315 55.68 -315 54.36 -315 53 C-307.74 53 -300.48 53 -293 53 C-293 50.69 -293 48.38 -293 46 C-288.71 46 -284.42 46 -280 46 C-279.67 45.01 -279.34 44.02 -279 43 C-279 43.99 -279 44.98 -279 46 C-277.02 46 -275.04 46 -273 46 C-273 48.64 -273 51.28 -273 54 C-268.09143625 54.0804241 -263.18743488 54.10007614 -258.27832031 54.06713867 C-256.61420967 54.06408555 -254.94998455 54.07668973 -253.28613281 54.10620117 C-240.88514695 54.31139197 -234.23020177 52.81488936 -225 44 C-223.82004543 43.01461081 -222.6349941 42.03523683 -221.44140625 41.06640625 C-220.49136719 40.24011719 -219.54132813 39.41382813 -218.5625 38.5625 C-196.95913462 20 -196.95913462 20 -190 20 C-190 19.34 -190 18.68 -190 18 C-181.92506473 12.61670982 -167.88365179 14.03571363 -158.640625 15.671875 C-155.40064556 16.37276851 -152.19667294 17.12391345 -149 18 C-149 18.66 -149 19.32 -149 20 C-148.030625 19.938125 -147.06125 19.87625 -146.0625 19.8125 C-141.38440054 19.78374119 -137.32524418 21.35228793 -133 23 C-133 23.66 -133 24.32 -133 25 C-132.07058594 25.19335938 -131.14117188 25.38671875 -130.18359375 25.5859375 C-128.94738281 25.84632813 -127.71117187 26.10671875 -126.4375 26.375 C-125.21933594 26.63023437 -124.00117187 26.88546875 -122.74609375 27.1484375 C-119.11800476 27.97317514 -115.57257291 28.96430906 -112 30 C-111.95345135 43.28356942 -111.91801707 56.5671191 -111.89637566 69.85075378 C-111.88598358 76.02032371 -111.87190888 82.18983742 -111.84912109 88.359375 C-111.82722838 94.32460068 -111.81539705 100.28977262 -111.81024551 106.2550354 C-111.80657903 108.51934656 -111.79942025 110.78365513 -111.78853989 113.04794312 C-111.67031246 138.6956947 -112.82579321 165.51527974 -132 185 C-133.31874488 185.69507853 -134.64987672 186.3680274 -136 187 C-137.26804566 189.0335948 -137.26804566 189.0335948 -138 191 C-138.66 191 -139.32 191 -140 191 C-140.33 191.99 -140.66 192.98 -141 194 C-143.22367958 195.63283278 -145.41284378 197.11242231 -147.75 198.5625 C-148.37132812 198.96146484 -148.99265625 199.36042969 -149.6328125 199.77148438 C-153.09429165 201.95864261 -156.11842676 203.4473707 -160 205 C-133.27 205.33 -106.54 205.66 -79 206 C-79 192.8 -79 179.6 -79 166 C-81.64 166 -84.28 166 -87 166 C-87.12467106 160.50488326 -87.21483881 155.01061032 -87.2746582 149.5144043 C-87.29962439 147.64934934 -87.33361 145.78439043 -87.37719727 143.91967773 C-87.8040988 125.17116684 -87.8040988 125.17116684 -83.18041992 117.06958008 C-82.01734472 115.03040977 -81.45386402 113.29076252 -81 111 C-80.34 111 -79.68 111 -79 111 C-79 102.42 -79 93.84 -79 85 C-79.66 85 -80.32 85 -81 85 C-81 83.02 -81 81.04 -81 79 C-75.39 79 -69.78 79 -64 79 C-63.67 77.02 -63.34 75.04 -63 73 C-61.93115234 70.28808594 -61.93115234 70.28808594 -60.5859375 67.484375 C-60.07949707 66.41461426 -59.57305664 65.34485352 -59.05126953 64.24267578 C-58.49810059 63.09009277 -57.94493164 61.93750977 -57.375 60.75 C-56.18717155 58.24478176 -55.00660166 55.73619186 -53.828125 53.2265625 C-53.51912262 52.56933197 -53.21012024 51.91210144 -52.89175415 51.23495483 C-48.50980366 41.87214281 -44.40843776 32.38250485 -40.29052734 22.90136719 C-38.84248199 19.57410332 -37.3670876 16.26015153 -35.87316895 12.95324707 C-35.27966441 11.62559909 -34.69659856 10.29324567 -34.1229248 8.95690918 C-33.27104562 6.97724667 -32.38581228 5.01579143 -31.4921875 3.0546875 C-30.98800293 1.91241699 -30.48381836 0.77014648 -29.96435547 -0.40673828 C-28 -3 -28 -3 -24.48461914 -3.87939453 C-15.8129316 -4.17952861 -7.95663808 -3.58828776 0 0 Z M-390 194 C-390.02688151 195.64574566 -390.04634123 197.29161413 -390.0625 198.9375 C-390.07410156 199.85402344 -390.08570313 200.77054688 -390.09765625 201.71484375 C-390.25949049 203.96593327 -390.25949049 203.96593327 -389 205 C-384.85723125 205.24733137 -384.85723125 205.24733137 -381 204 C-381 203.34 -381 202.68 -381 202 C-381.66 202 -382.32 202 -383 202 C-383.33 200.02 -383.66 198.04 -384 196 C-385.98 195.34 -387.96 194.68 -390 194 Z M7 196 C6.67 198.97 6.34 201.94 6 205 C8.475 205.495 8.475 205.495 11 206 C11.22036864 202.14354879 10.60355101 199.50776784 9 196 C8.34 196 7.68 196 7 196 Z M22 201 C22 202.32 22 203.64 22 205 C23.65 205 25.3 205 27 205 C26.67 203.68 26.34 202.36 26 201 C24.68 201 23.36 201 22 201 Z " fill="#212220" transform="translate(646,201)"/>
<path d="M0 0 C1.02222656 0.11472656 2.04445313 0.22945313 3.09765625 0.34765625 C15.91903632 2.05165902 29.03480792 7.55020294 38 17 C38.94875 17.61875 39.8975 18.2375 40.875 18.875 C51.66680756 26.21342914 57.96416679 37.33189198 62.375 49.375 C62.61355713 50.00905762 62.85211426 50.64311523 63.09790039 51.29638672 C67.62132402 64.5347982 67.26793762 78.64132318 67.125 92.4375 C67.1149366 94.1516874 67.10581676 95.86588061 67.09765625 97.58007812 C67.07593996 101.72019945 67.04160128 105.86003272 67 110 C62.48048812 109.37629598 58.11065097 108.62405361 53.6875 107.5 C52.66011719 107.2421875 51.63273438 106.984375 50.57421875 106.71875 C48 106 48 106 46 105 C46 104.34 46 103.68 46 103 C45.030625 102.87625 44.06125 102.7525 43.0625 102.625 C38.65184223 102.00136191 34.33522241 101.01253494 30 100 C30 99.34 30 98.68 30 98 C29.40832031 97.93941406 28.81664062 97.87882812 28.20703125 97.81640625 C27.02173828 97.69072266 27.02173828 97.69072266 25.8125 97.5625 C24.64654297 97.44068359 24.64654297 97.44068359 23.45703125 97.31640625 C21 97 21 97 18.78125 96.4765625 C14.74854538 95.78556536 10.77157804 95.81567827 6.6875 95.8125 C5.87087891 95.80025391 5.05425781 95.78800781 4.21289062 95.77539062 C-1.19431365 95.76246504 -5.80627644 96.48790327 -11 98 C-11 98.66 -11 99.32 -11 100 C-11.928125 100.33 -12.85625 100.66 -13.8125 101 C-22.60635401 104.80655805 -29.87272367 111.65131042 -37.07250977 117.84375 C-42.51865725 122.50515235 -48.21904499 126.76357496 -54 131 C-54.54229248 131.52762939 -55.08458496 132.05525879 -55.64331055 132.59887695 C-59.07510897 134.63918475 -62.39233508 134.37118029 -66.265625 134.29296875 C-67.05902283 134.28872391 -67.85242065 134.28447906 -68.66986084 134.28010559 C-71.1969232 134.2633504 -73.72317983 134.22570506 -76.25 134.1875 C-77.96613429 134.17244903 -79.68228112 134.15876134 -81.3984375 134.14648438 C-85.59926746 134.11345735 -89.79949725 134.06169765 -94 134 C-92.68 133.67 -91.36 133.34 -90 133 C-90.00888245 132.2654509 -90.01776489 131.53090179 -90.0269165 130.77409363 C-90.1079594 123.76046698 -90.16841083 116.74700969 -90.20724869 109.73304272 C-90.22788871 106.12935672 -90.25575754 102.526066 -90.30175781 98.92260742 C-90.64161018 71.56853584 -89.39797662 44.76013748 -69.27539062 23.90625 C-60.28248146 14.88257832 -51.81589132 9.0228885 -40 4 C-39.24976563 3.64808594 -38.49953125 3.29617187 -37.7265625 2.93359375 C-25.89325228 -1.11821304 -12.28459853 -1.73303325 0 0 Z " fill="#F4C223" transform="translate(467,121)"/>
<path d="M0 0 C1.22244667 0.00333092 1.22244667 0.00333092 2.46958923 0.00672913 C3.85090782 0.00684242 3.85090782 0.00684242 5.26013184 0.00695801 C6.2611644 0.01211929 7.26219696 0.01728058 8.29356384 0.02259827 C9.31316696 0.02401321 10.33277008 0.02542816 11.38327026 0.02688599 C14.65417867 0.03250355 17.92501972 0.04505902 21.19590759 0.05775452 C23.40749515 0.06276725 25.61908377 0.06733055 27.83067322 0.07142639 C33.26494116 0.08247868 38.69916957 0.09923389 44.13340759 0.12025452 C44.62840759 1.60525452 44.62840759 1.60525452 45.13340759 3.12025452 C44.80340759 3.78025452 44.47340759 4.44025452 44.13340759 5.12025452 C43.47340759 5.12025452 42.81340759 5.12025452 42.13340759 5.12025452 C42.13340759 6.44025452 42.13340759 7.76025452 42.13340759 9.12025452 C41.47340759 9.12025452 40.81340759 9.12025452 40.13340759 9.12025452 C39.94778259 10.45056702 39.94778259 10.45056702 39.75840759 11.80775452 C39.18928023 14.82412954 38.36726324 17.32351506 37.13340759 20.12025452 C36.47340759 20.12025452 35.81340759 20.12025452 35.13340759 20.12025452 C35.13340759 21.44025452 35.13340759 22.76025452 35.13340759 24.12025452 C34.47340759 24.12025452 33.81340759 24.12025452 33.13340759 24.12025452 C33.13340759 25.44025452 33.13340759 26.76025452 33.13340759 28.12025452 C32.47340759 28.12025452 31.81340759 28.12025452 31.13340759 28.12025452 C30.94778259 29.69806702 30.94778259 29.69806702 30.75840759 31.30775452 C30.22199977 34.57984223 29.49460725 37.12561528 28.13340759 40.12025452 C27.47340759 40.12025452 26.81340759 40.12025452 26.13340759 40.12025452 C26.34997009 42.00744202 26.34997009 42.00744202 26.57090759 43.93275452 C26.65211853 44.64044983 26.73332947 45.34814514 26.81700134 46.07728577 C27.10511495 48.31421844 27.10511495 48.31421844 28.13340759 51.12025452 C28.79340759 51.12025452 29.45340759 51.12025452 30.13340759 51.12025452 C31.29115819 54.59350632 31.20207411 57.48092899 31.13340759 61.12025452 C31.79340759 61.12025452 32.45340759 61.12025452 33.13340759 61.12025452 C33.13340759 63.43025452 33.13340759 65.74025452 33.13340759 68.12025452 C33.79340759 68.12025452 34.45340759 68.12025452 35.13340759 68.12025452 C35.78344385 70.32735435 36.42825504 72.53599344 37.07090759 74.74525452 C37.61038025 76.58990295 37.61038025 76.58990295 38.16075134 78.47181702 C39.65943587 84.09338871 40.25526658 89.17807386 40.19590759 94.99525452 C40.18688416 96.14767639 40.17786072 97.30009827 40.16856384 98.48744202 C40.15696228 99.35627014 40.14536072 100.22509827 40.13340759 101.12025452 C40.79340759 101.12025452 41.45340759 101.12025452 42.13340759 101.12025452 C42.19399353 102.16826233 42.25457947 103.21627014 42.31700134 104.29603577 C42.40142497 105.674955 42.48607206 107.05386056 42.57090759 108.43275452 C42.610224 109.12304749 42.64954041 109.81334045 42.69004822 110.52455139 C42.88268174 113.59186986 43.15663477 116.18993603 44.13340759 119.12025452 C43.47340759 119.12025452 42.81340759 119.12025452 42.13340759 119.12025452 C42.13340759 120.11025452 42.13340759 121.10025452 42.13340759 122.12025452 C43.31418884 122.09705139 44.49497009 122.07384827 45.71153259 122.04994202 C47.26881793 122.03117954 48.82611011 122.01297985 50.38340759 121.99525452 C51.16071228 121.9784967 51.93801697 121.96173889 52.73887634 121.94447327 C53.49297791 121.93802795 54.24707947 121.93158264 55.02403259 121.92494202 C55.71529236 121.91446838 56.40655212 121.90399475 57.11875916 121.89320374 C59.13340759 122.12025452 59.13340759 122.12025452 63.13340759 124.12025452 C63.13340759 150.85025452 63.13340759 177.58025452 63.13340759 205.12025452 C63.79340759 205.45025452 64.45340759 205.78025452 65.13340759 206.12025452 C63.48340759 206.12025452 61.83340759 206.12025452 60.13340759 206.12025452 C60.13340759 179.06025452 60.13340759 152.00025452 60.13340759 124.12025452 C53.86340759 124.12025452 47.59340759 124.12025452 41.13340759 124.12025452 C34.53340759 123.79025452 27.93340759 123.46025452 21.13340759 123.12025452 C21.13340759 150.18025452 21.13340759 177.24025452 21.13340759 205.12025452 C12.22340759 205.12025452 3.31340759 205.12025452 -5.86659241 205.12025452 C-5.86659241 201.82025452 -5.86659241 198.52025452 -5.86659241 195.12025452 C-5.20659241 195.12025452 -4.54659241 195.12025452 -3.86659241 195.12025452 C-3.86659241 193.14025452 -3.86659241 191.16025452 -3.86659241 189.12025452 C-8.15659241 189.12025452 -12.44659241 189.12025452 -16.86659241 189.12025452 C-16.96971741 187.88275452 -17.07284241 186.64525452 -17.17909241 185.37025452 C-17.60890431 181.79270252 -18.4443615 179.85842859 -20.86659241 177.12025452 C-20.86659241 176.46025452 -20.86659241 175.80025452 -20.86659241 175.12025452 C-26.49234771 175.1891674 -26.49234771 175.1891674 -30.86659241 178.18275452 C-32.17894459 182.03778905 -32.0731228 185.05849011 -31.86659241 189.12025452 C-35.49659241 189.12025452 -39.12659241 189.12025452 -42.86659241 189.12025452 C-42.28008318 184.24019698 -40.76377833 180.11911598 -38.74159241 175.68275452 C-38.43028381 174.9868219 -38.11897522 174.29088928 -37.79823303 173.5738678 C-36.82990335 171.41850621 -35.85012936 169.26871438 -34.86659241 167.12025452 C-34.56914124 166.46750549 -34.27169006 165.81475647 -33.96522522 165.14222717 C-30.3405651 157.2089705 -26.53808051 149.38497964 -22.54237366 141.63197327 C-20.85697488 138.1001003 -19.41208008 134.53237318 -17.9801178 130.89295959 C-15.91511669 125.75105704 -13.6630563 120.69046143 -11.42909241 115.62025452 C-10.73203186 114.02503967 -10.73203186 114.02503967 -10.02088928 112.39759827 C-6.63996615 104.71153871 -3.13001933 97.11897541 1.00840759 89.80775452 C2.29833926 86.72625108 2.14782537 85.25572765 1.13340759 82.12025452 C-1.83659241 81.46025452 -4.80659241 80.80025452 -7.86659241 80.12025452 C-7.86659241 79.46025452 -7.86659241 78.80025452 -7.86659241 78.12025452 C-16.94108426 76.20743817 -25.53483952 74.58644662 -34.86659241 75.12025452 C-32.55572538 61.50088924 -24.41124466 48.09068678 -18.17909241 35.80775452 C-15.89817513 31.28124391 -13.85079117 26.77556488 -12.03846741 22.04603577 C-10.3531293 17.83830828 -8.51650241 13.700926 -6.67909241 9.55775452 C-6.32145813 8.74661194 -5.96382385 7.93546936 -5.59535217 7.0997467 C-5.25818176 6.34210022 -4.92101135 5.58445374 -4.57362366 4.80384827 C-4.11693298 3.77602234 -4.11693298 3.77602234 -3.65101624 2.72743225 C-2.39513664 0.15430578 -2.39513664 0.15430578 0 0 Z " fill="#F7E4A2" transform="translate(653.8665924072266,122.87974548339844)"/>
<path d="M0 0 C0 0.66 0 1.32 0 2 C0.969375 1.938125 1.93875 1.87625 2.9375 1.8125 C7.61559946 1.78374119 11.67475582 3.35228793 16 5 C16 5.66 16 6.32 16 7 C16.92941406 7.19335938 17.85882812 7.38671875 18.81640625 7.5859375 C20.05261719 7.84632813 21.28882813 8.10671875 22.5625 8.375 C23.78066406 8.63023437 24.99882813 8.88546875 26.25390625 9.1484375 C29.88199524 9.97317514 33.42742709 10.96430906 37 12 C37.04654865 25.28356942 37.08198293 38.5671191 37.10362434 51.85075378 C37.11401642 58.02032371 37.12809112 64.18983742 37.15087891 70.359375 C37.17277162 76.32460068 37.18460295 82.28977262 37.18975449 88.2550354 C37.19342097 90.51934656 37.20057975 92.78365513 37.21146011 95.04794312 C37.32968754 120.6956947 36.17420679 147.51527974 17 167 C15.68125512 167.69507853 14.35012328 168.3680274 13 169 C11.73195434 171.0335948 11.73195434 171.0335948 11 173 C10.34 173 9.68 173 9 173 C8.67 173.99 8.34 174.98 8 176 C5.86068757 177.62211602 3.76236799 179.07188021 1.5 180.5 C0.9121875 180.89058594 0.324375 181.28117188 -0.28125 181.68359375 C-5.21863848 184.84394802 -9.13890246 186.04630082 -15 188 C-15 166.88 -15 145.76 -15 124 C-14.01 123.67 -13.02 123.34 -12 123 C-12 121.02 -12 119.04 -12 117 C-12.66 117 -13.32 117 -14 117 C-14 105.78 -14 94.56 -14 83 C-13.34 83 -12.68 83 -12 83 C-12 80.69 -12 78.38 -12 76 C-12.66 76 -13.32 76 -14 76 C-14 65.77 -14 55.54 -14 45 C-13.34 45 -12.68 45 -12 45 C-12 42.69 -12 40.38 -12 38 C-12.66 38 -13.32 38 -14 38 C-14 28.43 -14 18.86 -14 9 C-16.31 9 -18.62 9 -21 9 C-21 18.57 -21 28.14 -21 38 C-31.23 38 -41.46 38 -52 38 C-52 32.06 -52 26.12 -52 20 C-54.31 20 -56.62 20 -59 20 C-59 24.95 -59 29.9 -59 35 C-68.24 35 -77.48 35 -87 35 C-84.3942611 32.3942611 -82.33102006 30.39358462 -79.4375 28.3125 C-76.16760314 25.9037362 -73.00826686 23.39663762 -69.875 20.8125 C-65.49168607 17.20667332 -61.07706657 13.64530679 -56.625 10.125 C-56.04218262 9.6606958 -55.45936523 9.1963916 -54.85888672 8.71801758 C-46.33146342 2 -46.33146342 2 -41 2 C-41 1.34 -41 0.68 -41 0 C-30.35514589 -7.0965694 -11.49457086 -3.15022497 0 0 Z " fill="#06486A" transform="translate(497,219)"/>
<path d="M0 0 C13.0042728 0 26.01370132 0.3165106 39 1 C39 28.06 39 55.12 39 83 C47.25 83 55.5 83 64 83 C64 95.87 64 108.74 64 122 C56.74 122 49.48 122 42 122 C42 134.87 42 147.74 42 161 C35.07 161 28.14 161 21 161 C20.60938279 147.06798605 20.60938279 147.06798605 24 142 C23.74756206 138.4658688 22.99789249 136.99683874 21 134 C18.43717258 133.27034634 18.43717258 133.27034634 16 133 C16.639375 132.690625 17.27875 132.38125 17.9375 132.0625 C19.93610821 131.1654837 19.93610821 131.1654837 21 130 C21.04080783 128.00041636 21.04254356 125.99954746 21 124 C19.02 124 17.04 124 15 124 C14.20046862 127.28696233 13.90341064 128.71023192 15 132 C12.30730091 131.62698541 11.21610375 131.2398855 9.3671875 129.1875 C8.87476563 128.465625 8.38234375 127.74375 7.875 127 C5.89926624 123.97716106 5.89926624 123.97716106 3 122 C4.62741544 126.02571188 6.36126728 129.5822183 8.6875 133.25 C11.66760554 138.52111761 11.50500272 143.08898453 11 149 C10.93167969 149.94101562 10.86335937 150.88203125 10.79296875 151.8515625 C10.22319878 158.55360243 10.22319878 158.55360243 9 161 C8.01 160.67 7.02 160.34 6 160 C5.0818016 157.45775625 4.37264709 155.04799893 3.73046875 152.43359375 C3.52893188 151.65554886 3.32739502 150.87750397 3.11975098 150.07588196 C2.68825276 148.40220793 2.2627591 146.72697679 1.84262085 145.05041504 C1.18782604 142.4388004 0.51649809 139.83193216 -0.15893555 137.22558594 C-2.13301255 129.57279887 -4.04364897 121.9099271 -5.8125 114.20703125 C-6.07184326 113.097229 -6.33118652 111.98742676 -6.59838867 110.84399414 C-7.06366451 108.82811698 -7.51012453 106.80777523 -7.93481445 104.78295898 C-8.4826289 102.40518809 -8.99610122 100.22339191 -10 98 C-12.49325195 96.27285981 -12.49325195 96.27285981 -15 96 C-15 98.64 -15 101.28 -15 104 C-17.97 104 -20.94 104 -24 104 C-28.10582569 96.98588111 -27.2098866 89.90572847 -27 82 C-18.09 82 -9.18 82 0 82 C0 54.94 0 27.88 0 0 Z " fill="#05486D" transform="translate(675,246)"/>
<path d="M0 0 C14.52 0 29.04 0 44 0 C43.26312356 2.94750577 42.55661087 5.19959681 41.328125 7.90625 C40.99586914 8.64439941 40.66361328 9.38254883 40.32128906 10.14306641 C39.96776367 10.92085449 39.61423828 11.69864258 39.25 12.5 C36.45778002 18.7009203 33.74230659 24.91650675 31.203125 31.2265625 C30.22408161 33.48344824 29.17898156 35.64669525 28.0625 37.8359375 C26.05359551 41.80796215 24.38478985 45.86319017 22.75 50 C20.16170799 56.41871112 17.28399329 62.59979146 14.12866211 68.7565918 C10.11974197 76.62695317 6.57478272 84.70348519 2.99121094 92.77392578 C1.65569701 95.77324007 0.29870913 98.76226131 -1.0625 101.75 C-1.63677734 103.01070312 -1.63677734 103.01070312 -2.22265625 104.296875 C-2.47917969 104.85890625 -2.73570312 105.4209375 -3 106 C-1.35 106 0.3 106 2 106 C2.625 109.375 2.625 109.375 3 113 C1 115 1 115 -1.5 115.25 C-4 115 -4 115 -6 113 C-9.3 120.26 -12.6 127.52 -16 135 C-17.32 135 -18.64 135 -20 135 C-19.83734146 135.85477936 -19.67468292 136.70955872 -19.50709534 137.59024048 C-19.00379874 140.97445689 -18.87971756 144.13708323 -18.88647461 147.55615234 C-18.88655014 148.83702728 -18.88662567 150.11790222 -18.88670349 151.43759155 C-18.89180895 152.82037394 -18.89702492 154.20315592 -18.90234375 155.5859375 C-18.90421083 157.01225739 -18.90563336 158.43857792 -18.90663147 159.86489868 C-18.91043385 163.60326942 -18.92024448 167.34160078 -18.93133545 171.07995605 C-18.94340598 175.57377814 -18.94796267 180.06761346 -18.95378876 184.56144714 C-18.96345762 191.37432541 -18.98263004 198.18711742 -19 205 C-28.57 205 -38.14 205 -48 205 C-47.16563663 200.82818316 -46.26558785 198.09503117 -44.48046875 194.3359375 C-43.95799561 193.22573242 -43.43552246 192.11552734 -42.8972168 190.97167969 C-42.33301025 189.78477539 -41.76880371 188.59787109 -41.1875 187.375 C-40.00676075 184.86889705 -38.83094998 182.36050117 -37.65625 179.8515625 C-37.35543015 179.20985107 -37.05461029 178.56813965 -36.74467468 177.90698242 C-33.46704036 170.89543031 -30.31941521 163.8275865 -27.1875 156.75 C-26.66631592 155.57228027 -26.14513184 154.39456055 -25.6081543 153.18115234 C-24.40351625 150.45494147 -23.20061448 147.72798469 -22 145 C-22.87990601 145.21112427 -22.87990601 145.21112427 -23.77758789 145.42651367 C-37.88089612 148.7055798 -48.6901862 146.52266399 -61 139 C-61 138.01 -61 137.02 -61 136 C-60.34 136 -59.68 136 -59 136 C-58.505 132.04 -58.505 132.04 -58 128 C-57.34 128 -56.68 128 -56 128 C-56 126.68 -56 125.36 -56 124 C-55.34 124 -54.68 124 -54 124 C-54 122.68 -54 121.36 -54 120 C-53.34 120 -52.68 120 -52 120 C-51.896875 119.01 -51.79375 118.02 -51.6875 117 C-51.09191294 112.71702837 -49.61404973 109.00003629 -48 105 C-47.34 105 -46.68 105 -46 105 C-45.6184375 103.7625 -45.236875 102.525 -44.84375 101.25 C-42.85213018 95.28444718 -40.18385257 89.67972121 -37.5 84 C-33.35389405 75.12685336 -29.29470579 66.22552756 -25.375 57.25 C-20.36328621 45.78100822 -15.21269323 34.37890702 -10 23 C-9.34 23 -8.68 23 -8 23 C-7.87882812 22.39671875 -7.75765625 21.7934375 -7.6328125 21.171875 C-7.46523438 20.37265625 -7.29765625 19.5734375 -7.125 18.75 C-6.96257812 17.96109375 -6.80015625 17.1721875 -6.6328125 16.359375 C-6.00849925 14.03168856 -5.15161458 12.10968048 -4 10 C-3.34 10 -2.68 10 -2 10 C-1.855625 8.906875 -1.71125 7.81375 -1.5625 6.6875 C-1 3 -1 3 0 0 Z " fill="#42BBC3" transform="translate(266,123)"/>
<path d="M0 0 C2.3203125 0.92578125 2.3203125 0.92578125 5.125 2.3125 C16.54991599 7.65401917 26.58761126 7.62785426 39 6 C38.36642237 10.05480352 37.05791293 13.34822719 35.3046875 17.05078125 C34.48291016 18.79983765 34.48291016 18.79983765 33.64453125 20.58422852 C33.21068115 21.49822922 33.21068115 21.49822922 32.76806641 22.43069458 C31.26911328 25.58918099 29.78774172 28.75590043 28.3046875 31.921875 C28.01406433 32.54115372 27.72344116 33.16043243 27.42401123 33.79847717 C24.69509465 39.62419665 22.1005819 45.49946008 19.5625 51.41015625 C17.4343064 56.29968105 15.20664706 61.14537648 13 66 C22.57 66 32.14 66 42 66 C42 80.85 42 95.7 42 111 C41.67 109.68 41.34 108.36 41 107 C39.67242172 106.9845388 39.67242172 106.9845388 38.31802368 106.96876526 C29.98924184 106.87090733 21.66053293 106.76840973 13.33187294 106.66066074 C9.04972559 106.60542678 4.76757142 106.55200602 0.48535156 106.50268555 C-3.64493488 106.45504897 -7.77513701 106.40270642 -11.90532303 106.34705925 C-13.48340387 106.32663249 -15.06150783 106.30791994 -16.63962936 106.29092598 C-18.84496189 106.26688903 -21.05013451 106.23683366 -23.25537109 106.20532227 C-24.51223724 106.18977798 -25.76910339 106.1742337 -27.0640564 106.15821838 C-30 106 -30 106 -32 105 C-32.09975053 100.05621051 -32.17187902 95.11302178 -32.21972656 90.16845703 C-32.23969699 88.49061869 -32.26688332 86.81284864 -32.30175781 85.13525391 C-32.49705452 75.49104299 -32.40580585 67.79152444 -28 59 C-27.63137521 57.67598918 -27.2866598 56.34414101 -27 55 C-26.34 55 -25.68 55 -25 55 C-24.855625 54.401875 -24.71125 53.80375 -24.5625 53.1875 C-24.1127561 51.43849596 -23.57107659 49.71322977 -23 48 C-22.34 48 -21.68 48 -21 48 C-20.9175 46.845 -20.835 45.69 -20.75 44.5 C-20.18513317 39.77872502 -18.33831147 36.0893261 -16 32 C-15.34 32 -14.68 32 -14 32 C-13.87625 30.948125 -13.7525 29.89625 -13.625 28.8125 C-13.08859218 25.54041229 -12.36119965 22.99463924 -11 20 C-10.34 20 -9.68 20 -9 20 C-9 18.68 -9 17.36 -9 16 C-8.34 16 -7.68 16 -7 16 C-7 14.68 -7 13.36 -7 12 C-6.34 12 -5.68 12 -5 12 C-4.87625 10.9275 -4.7525 9.855 -4.625 8.75 C-4.10280215 5.6168129 -3.70882871 3.61350274 -2 1 C-1.34 0.67 -0.68 0.34 0 0 Z " fill="#074A6D" transform="translate(205,262)"/>
<path d="M0 0 C15 0 15 0 17 1 C18.35845193 1.08902493 19.72115974 1.11760132 21.08251953 1.11352539 C21.92324005 1.11344986 22.76396057 1.11337433 23.63015747 1.11329651 C24.53853363 1.10813522 25.44690979 1.10297394 26.3828125 1.09765625 C27.77691849 1.09553383 27.77691849 1.09553383 29.19918823 1.09336853 C32.17449124 1.08776053 35.14971964 1.07520668 38.125 1.0625 C40.13932183 1.05748603 42.15364484 1.05292295 44.16796875 1.04882812 C49.11200802 1.0377885 54.05599135 1.02051849 59 1 C59 1.99 59 2.98 59 4 C59.99 4 60.98 4 62 4 C62 14.56 62 25.12 62 36 C61.34 36 60.68 36 60 36 C60 37.65 60 39.3 60 41 C60.66 41 61.32 41 62 41 C62 51.56 62 62.12 62 73 C41.54 73 21.08 73 0 73 C0 48.91 0 24.82 0 0 Z " fill="#054462" transform="translate(377,260)"/>
<path d="M0 0 C0 0.66 0 1.32 0 2 C0.62648438 2.08636719 1.25296875 2.17273438 1.8984375 2.26171875 C2.71570313 2.40222656 3.53296875 2.54273438 4.375 2.6875 C5.18710937 2.81511719 5.99921875 2.94273437 6.8359375 3.07421875 C9 4 9 4 10.25415039 6.29052734 C11 9 11 9 10.36743164 11.09350586 C9.94840576 11.81417236 9.52937988 12.53483887 9.09765625 13.27734375 C6.65732084 17.7420577 4.46098253 22.24359598 2.37109375 26.87890625 C2.05226227 27.58139496 1.73343079 28.28388367 1.40493774 29.00765991 C0.41391801 31.19176273 -0.57429724 33.37712144 -1.5625 35.5625 C-2.22834755 37.03067519 -2.8943622 38.49877462 -3.56054688 39.96679688 C-6.10223157 45.57159125 -8.64299442 51.17660213 -11.1328125 56.8046875 C-13.4693905 62.08320391 -15.89724583 67.31965167 -18.3125 72.5625 C-22.15674138 80.92205694 -25.92706229 89.30541982 -29.5625 97.7578125 C-30.95140724 100.8904022 -32.4418338 103.9485912 -34 107 C-34.33 107 -34.66 107 -35 107 C-35 99.74 -35 92.48 -35 85 C-34.34 85 -33.68 85 -33 85 C-33 83.02 -33 81.04 -33 79 C-43.23 79 -53.46 79 -64 79 C-63.20840175 74.25041048 -62.57351212 71.62689895 -60.5859375 67.484375 C-59.82627686 65.87973389 -59.82627686 65.87973389 -59.05126953 64.24267578 C-58.49810059 63.09009277 -57.94493164 61.93750977 -57.375 60.75 C-56.18717155 58.24478176 -55.00660166 55.73619186 -53.828125 53.2265625 C-53.51912262 52.56933197 -53.21012024 51.91210144 -52.89175415 51.23495483 C-48.50980366 41.87214281 -44.40843776 32.38250485 -40.29052734 22.90136719 C-38.84248199 19.57410332 -37.3670876 16.26015153 -35.87316895 12.95324707 C-35.27966441 11.62559909 -34.69659856 10.29324567 -34.1229248 8.95690918 C-33.27104562 6.97724667 -32.38581228 5.01579143 -31.4921875 3.0546875 C-30.98800293 1.91241699 -30.48381836 0.77014648 -29.96435547 -0.40673828 C-28 -3 -28 -3 -24.48461914 -3.87939453 C-15.8129316 -4.17952861 -7.95663808 -3.58828776 0 0 Z " fill="#07445D" transform="translate(646,201)"/>
<path d="M0 0 C0.77943466 0.00222061 1.55886932 0.00444122 2.36192322 0.00672913 C3.24276077 0.00680466 4.12359833 0.00688019 5.03112793 0.00695801 C5.98841293 0.01211929 6.94569794 0.01728058 7.93199158 0.02259827 C9.39480812 0.02472069 9.39480812 0.02472069 10.88717651 0.02688599 C14.01542675 0.03250319 17.14360656 0.04505859 20.27183533 0.05775452 C22.38706867 0.0627673 24.50230313 0.06733059 26.61753845 0.07142639 C31.81482829 0.0824782 37.01207678 0.09923305 42.20933533 0.12025452 C41.9086615 0.71257874 41.60798767 1.30490295 41.29820251 1.91517639 C39.80952781 4.92990955 38.52202762 8.02628051 37.20933533 11.12025452 C33.20891569 20.38855347 29.10340407 29.59190823 24.78746033 38.71791077 C23.19150747 42.15869031 21.69978601 45.63259992 20.20933533 49.12025452 C18.80519901 52.27175258 17.38153013 55.41437212 15.95933533 58.55775452 C11.97573734 67.38320867 8.06693628 76.23908963 4.20933533 85.12025452 C3.21933533 84.79025452 2.22933533 84.46025452 1.20933533 84.12025452 C1.20933533 83.46025452 1.20933533 82.80025452 1.20933533 82.12025452 C-1.76066467 81.46025452 -4.73066467 80.80025452 -7.79066467 80.12025452 C-7.79066467 79.46025452 -7.79066467 78.80025452 -7.79066467 78.12025452 C-16.86515652 76.20743817 -25.45891178 74.58644662 -34.79066467 75.12025452 C-32.47979764 61.50088924 -24.33531693 48.09068678 -18.10316467 35.80775452 C-15.8222474 31.28124391 -13.77486343 26.77556488 -11.96253967 22.04603577 C-10.27720156 17.83830828 -8.44057467 13.700926 -6.60316467 9.55775452 C-6.2455304 8.74661194 -5.88789612 7.93546936 -5.51942444 7.0997467 C-5.18225403 6.34210022 -4.84508362 5.58445374 -4.49769592 4.80384827 C-4.19323547 4.11863098 -3.88877502 3.4334137 -3.5750885 2.72743225 C-2.31993749 0.15579855 -2.31993749 0.15579855 0 0 Z " fill="#59CDCC" transform="translate(653.7906646728516,122.87974548339844)"/>
<path d="M0 0 C19.47 0 38.94 0 59 0 C59 0.99 59 1.98 59 3 C59.66 3 60.32 3 61 3 C61 24.45 61 45.9 61 68 C47.43303571 68 47.43303571 68 41.875 65 C41.29371338 64.68893311 40.71242676 64.37786621 40.11352539 64.05737305 C34.56433997 60.98145155 29.77355194 57.14163272 25 53 C24.18660156 52.38769531 23.37320312 51.77539062 22.53515625 51.14453125 C12.20494567 42.40603262 6.10627217 30.11531339 2.1875 17.4375 C1.96795654 16.74108398 1.74841309 16.04466797 1.5222168 15.32714844 C-0.08640526 9.78698909 0 6.12942994 0 0 Z " fill="#055287" transform="translate(378,339)"/>
<path d="M0 0 C8.91 0 17.82 0 27 0 C27.66 3.96 28.32 7.92 29 12 C33.48280383 32.54441377 44.50826701 48.54175116 62 60 C66.52565363 62.63150201 71.21854876 64.87087354 76 67 C76 67.33 76 67.66 76 68 C56.86 68 37.72 68 18 68 C16 45 16 45 19 40 C16.74937546 40.03309742 14.49926535 40.10257876 12.25 40.1875 C10.99703125 40.22230469 9.7440625 40.25710938 8.453125 40.29296875 C4.8293728 40.69488968 4.8293728 40.69488968 2.546875 43.55078125 C2.03640625 44.35902344 1.5259375 45.16726563 1 46 C2.12451727 48.9719385 3.22293791 51.33440687 5 54 C5.99 53.505 5.99 53.505 7 53 C6.67 57.95 6.34 62.9 6 68 C0.39 68 -5.22 68 -11 68 C-11 54.47 -11 40.94 -11 27 C-7.37 27 -3.74 27 0 27 C0 18.09 0 9.18 0 0 Z " fill="#F7E8A8" transform="translate(351,339)"/>
<path d="M0 0 C11.22 0 22.44 0 34 0 C34 24.09 34 48.18 34 73 C30.7 73 27.4 73 24 73 C23.91867813 70.43685501 23.85935825 67.87631582 23.8125 65.3125 C23.78736328 64.59126953 23.76222656 63.87003906 23.73632812 63.12695312 C23.67250539 58.46789321 24.33069765 55.79321913 27 52 C26.9148052 49.18857157 26.02614909 48.03620643 24.375 45.75 C22.0178665 43.73502773 22.0178665 43.73502773 18.5625 43.4375 C14.86353275 43.73681316 14.86353275 43.73681316 12 46.25 C9.79781598 48.71127509 9.79781598 48.71127509 10 51.0625 C10.92890684 53.07396578 10.92890684 53.07396578 12.5625 54.6875 C15.65253994 59.65843382 14.12459608 66.51759411 13 72 C11.68 72 10.36 72 9 72 C9 70.68 9 69.36 9 68 C5.04 68 1.08 68 -3 68 C-3 59.42 -3 50.84 -3 42 C-2.01 42 -1.02 42 0 42 C0 40.02 0 38.04 0 36 C-0.99 36 -1.98 36 -3 36 C-3 25.44 -3 14.88 -3 4 C-2.01 4 -1.02 4 0 4 C0 2.68 0 1.36 0 0 Z " fill="#F7F2BC" transform="translate(343,260)"/>
<path d="M0 0 C5.15992785 2.98867108 10.4582909 7.3718844 12.24609375 13.24609375 C12.40271484 14.11427734 12.40271484 14.11427734 12.5625 15 C11.99144531 15.44988281 11.42039062 15.89976562 10.83203125 16.36328125 C6.96071779 19.43448223 3.10623393 22.51652397 -0.64453125 25.734375 C-1.19149658 26.20319092 -1.73846191 26.67200684 -2.30200195 27.1550293 C-3.35215261 28.05876396 -4.39915532 28.96617686 -5.44213867 29.87817383 C-6.48816219 30.77799159 -7.55106902 31.65844427 -8.62744141 32.52172852 C-10.50785273 34.01935577 -10.50785273 34.01935577 -12.41552734 35.88256836 C-20.51499265 42.78641495 -29.01088093 41.80317471 -39.0625 41.4375 C-40.75123706 41.40232473 -42.44004504 41.37039671 -44.12890625 41.34179688 C-48.23354655 41.26529548 -52.33472697 41.14486743 -56.4375 41 C-56.4375 40.67 -56.4375 40.34 -56.4375 40 C-52.15452469 38.94380997 -48.00764354 38.88297908 -43.625 38.9375 C-42.93212891 38.94201172 -42.23925781 38.94652344 -41.52539062 38.95117188 C-39.82938932 38.96286844 -38.13343297 38.98080076 -36.4375 39 C-36.7571875 38.35417969 -37.076875 37.70835937 -37.40625 37.04296875 C-39.89597757 29.69638626 -39.87941424 20.02675047 -37.26953125 12.73828125 C-34.70243993 8.32341212 -31.81725447 4.71127658 -27.4375 2 C-26.91027344 1.63132813 -26.38304687 1.26265625 -25.83984375 0.8828125 C-18.15885728 -3.8464573 -8.09647978 -3.64650616 0 0 Z " fill="#D75C18" transform="translate(429.4375,214)"/>
<path d="M0 0 C10.56 0 21.12 0 32 0 C32 11.55 32 23.1 32 35 C21.44 35 10.88 35 0 35 C0 23.45 0 11.9 0 0 Z " fill="#054668" transform="translate(445,302)"/>
<path d="M0 0 C0.66 0 1.32 0 2 0 C2 0.66 2 1.32 2 2 C2.66 2 3.32 2 4 2 C4 2.99 4 3.98 4 5 C3.34 5 2.68 5 2 5 C2 5.66 2 6.32 2 7 C-1.31726612 8.65863306 -5.02702776 8.13734483 -8.67388916 8.12863445 C-9.58731945 8.13038749 -10.50074973 8.13214053 -11.44185972 8.13394669 C-14.53710092 8.13864021 -17.63229582 8.13613263 -20.72753906 8.13371277 C-22.95523238 8.13557905 -25.18292537 8.13787902 -27.41061783 8.14057809 C-33.55909147 8.146725 -39.70755158 8.14655912 -45.8560276 8.14538372 C-51.79735419 8.14520129 -57.73867676 8.14968433 -63.68000138 8.1539966 C-77.33901978 8.16368307 -90.99803443 8.16648132 -104.65705585 8.16705366 C-115.20142493 8.16751262 -125.74579253 8.16956787 -136.29016113 8.17275429 C-139.32165146 8.17365178 -142.35314178 8.1745416 -145.38463211 8.17542917 C-146.51497433 8.17576074 -146.51497433 8.17576074 -147.66815175 8.17609901 C-168.87290425 8.18225575 -190.07765624 8.18619931 -211.28240967 8.18575573 C-212.08237174 8.18574015 -212.88233381 8.18572457 -213.70653716 8.18570852 C-217.76139619 8.18562541 -221.81625522 8.18552637 -225.87111425 8.18542381 C-226.6764746 8.18540387 -227.48183494 8.18538392 -228.31160015 8.18536337 C-229.94023528 8.18532294 -231.56887041 8.18528114 -233.19750553 8.18523798 C-258.54704067 8.18462497 -283.89656244 8.1921355 -309.24609375 8.20581055 C-337.70251992 8.22115518 -366.15893731 8.22977777 -394.61536789 8.22884732 C-397.64685822 8.22877269 -400.67834854 8.22872399 -403.70983887 8.22869301 C-404.82954899 8.22867553 -404.82954899 8.22867553 -405.97187951 8.22865769 C-418.00899932 8.22862686 -430.04610757 8.23502539 -442.08322394 8.24362527 C-454.17005815 8.25208238 -466.25687537 8.25310699 -478.3437109 8.24651595 C-484.89774722 8.2431351 -491.45174985 8.24324958 -498.00578308 8.2518692 C-503.99626963 8.25966702 -509.98668021 8.25837244 -515.97716475 8.24958507 C-518.15343873 8.24803513 -520.32971821 8.24992158 -522.50598574 8.25544515 C-525.44612174 8.26241785 -528.38598471 8.25728123 -531.32611084 8.24888897 C-532.18663166 8.25385715 -533.04715247 8.25882533 -533.93374968 8.26394406 C-539.77170381 8.22829619 -539.77170381 8.22829619 -542 6 C-363.14 5.67 -184.28 5.34 0 5 C0 3.35 0 1.7 0 0 Z " fill="#E9E9E9" transform="translate(738,407)"/>
<path d="M0 0 C10.23 0 20.46 0 31 0 C31 10.23 31 20.46 31 31 C30.01 31 29.02 31 28 31 C28 32.32 28 33.64 28 35 C18.76 35 9.52 35 0 35 C0 23.45 0 11.9 0 0 Z " fill="#054462" transform="translate(303,302)"/>
<path d="M0 0 C5.094375 -0.020625 10.18875 -0.04125 15.4375 -0.0625 C17.04681396 -0.071604 18.65612793 -0.08070801 20.31420898 -0.09008789 C21.57048096 -0.09258545 22.82675293 -0.09508301 24.12109375 -0.09765625 C26.06133423 -0.10551147 26.06133423 -0.10551147 28.04077148 -0.11352539 C31 0 31 0 32 1 C32.08790975 3.29151417 32.10694038 5.58572524 32.09765625 7.87890625 C32.09515869 9.13517822 32.09266113 10.3914502 32.09008789 11.68579102 C32.08098389 13.29510498 32.07187988 14.90441895 32.0625 16.5625 C32.041875 21.656875 32.02125 26.75125 32 32 C21.44 32 10.88 32 0 32 C0 21.44 0 10.88 0 0 Z " fill="#05415A" transform="translate(445,264)"/>
<path d="M0 0 C10.23 0 20.46 0 31 0 C31 10.56 31 21.12 31 32 C20.77 32 10.54 32 0 32 C0 21.44 0 10.88 0 0 Z " fill="#05405A" transform="translate(303,264)"/>
<path d="M0 0 C0.66 0 1.32 0 2 0 C3.4453125 1.6875 3.4453125 1.6875 5.125 4 C7.02824541 6.61646158 8.60164505 8.71426897 11.23828125 10.60546875 C14.03364008 12.61633967 15.38014872 13.91280253 17 17 C18.01947799 24.31650615 17.35018921 31.64602667 17 39 C6.44 39 -4.12 39 -15 39 C-16.26493163 18.12862815 -16.26493163 18.12862815 -12.94921875 13.30078125 C-10.43541971 10.63056804 -7.84255845 8.31148321 -5 6 C-3.96546747 4.79975288 -2.9567413 3.57562975 -2 2.3125 C-1.34 1.549375 -0.68 0.78625 0 0 Z " fill="#045696" transform="translate(460,367)"/>
<path d="M0 0 C0.33 0 0.66 0 1 0 C1 20.79 1 41.58 1 63 C-8.57 63 -18.14 63 -28 63 C-27.16552761 58.82763804 -26.2576684 56.06762812 -24.48046875 52.30078125 C-23.95815674 51.18574219 -23.43584473 50.07070313 -22.89770508 48.921875 C-22.05115356 47.13523437 -22.05115356 47.13523437 -21.1875 45.3125 C-20.60446146 44.07189657 -20.02203135 42.83100703 -19.44018555 41.58984375 C-18.53964609 39.66918038 -17.63865636 37.74874076 -16.73561096 35.82925415 C-13.5563074 29.07038165 -10.43348081 22.28597696 -7.3125 15.5 C-6.33007962 13.36428305 -5.34705713 11.22884291 -4.36328125 9.09375 C-3.95376221 8.20365234 -3.54424316 7.31355469 -3.12231445 6.39648438 C-2.1150821 4.24573547 -1.07358359 2.11825946 0 0 Z " fill="#F7DF99" transform="translate(246,265)"/>
<path d="M0 0 C1.30905364 1.49184942 2.54799757 3.04562472 3.75 4.625 C6.39742997 8.20019581 6.39742997 8.20019581 9.59033203 11.25732422 C12.3834227 13.51706089 13.82145871 15.01856949 14.47851562 18.63037109 C14.59030958 21.73875131 14.52311515 24.76720346 14.375 27.875 C14.25125 31.54625 14.1275 35.2175 14 39 C3.77 39 -6.46 39 -17 39 C-17.2165625 33.8025 -17.2165625 33.8025 -17.4375 28.5 C-17.50122803 27.42427734 -17.56495605 26.34855469 -17.63061523 25.24023438 C-17.73760059 19.89589667 -17.33031252 16.69061388 -13.7421875 12.59375 C-12.51080805 11.37937553 -11.26460702 10.17973293 -10 9 C-9.22011719 8.0925 -8.44023437 7.185 -7.63671875 6.25 C-6.99347656 5.5075 -6.35023438 4.765 -5.6875 4 C-5.03136719 3.236875 -4.37523437 2.47375 -3.69921875 1.6875 C-2 0 -2 0 0 0 Z " fill="#045696" transform="translate(320,367)"/>
<path d="M0 0 C4.29 0 8.58 0 13 0 C13 3 13 3 11.0625 5.0625 C10.381875 5.701875 9.70125 6.34125 9 7 C8.67 7.66 8.34 8.32 8 9 C8.99 9.33 9.98 9.66 11 10 C11 10.66 11 11.32 11 12 C11.66 12 12.32 12 13 12 C13 10.02 13 8.04 13 6 C13.99 6 14.98 6 16 6 C16.66 7.98 17.32 9.96 18 12 C19.32 10.68 20.64 9.36 22 8 C21.34 8 20.68 8 20 8 C19 6 19 6 19 0 C23.29 0 27.58 0 32 0 C32 10.56 32 21.12 32 32 C21.44 32 10.88 32 0 32 C0 21.44 0 10.88 0 0 Z " fill="#F5E3A1" transform="translate(253,264)"/>
<path d="M0 0 C10.56 0 21.12 0 32 0 C32 9.57 32 19.14 32 29 C21.44 29 10.88 29 0 29 C0 19.43 0 9.86 0 0 Z " fill="#064769" transform="translate(573,318)"/>
<path d="M0 0 C0.66 0 1.32 0 2 0 C3.4453125 1.46875 3.4453125 1.46875 5.125 3.5 C6.97928242 5.7357855 8.75681554 7.80091268 11.00878906 9.64453125 C14.26748833 12.4364634 16.65947922 14.52243369 17.64501953 18.79882812 C17.78530667 21.9022411 17.70172501 24.90041766 17.5 28 C17.46390625 29.06089844 17.4278125 30.12179687 17.390625 31.21484375 C17.2970527 33.81147498 17.15357872 36.40622609 17 39 C9.74 39 2.48 39 -5 39 C-4.01 38.505 -4.01 38.505 -3 38 C-3 37.34 -3 36.68 -3 36 C-3.66 36 -4.32 36 -5 36 C-5.33 34.02 -5.66 32.04 -6 30 C-7.98 29.34 -9.96 28.68 -12 28 C-11.67 31.63 -11.34 35.26 -11 39 C-12.32 39 -13.64 39 -15 39 C-17.23438507 20.00036076 -17.23438507 20.00036076 -13.64208984 13.56884766 C-9.9946239 9.03508157 -5.57920381 5.54902446 -1 2 C-0.67 1.34 -0.34 0.68 0 0 Z " fill="#F9DE93" transform="translate(268,367)"/>
<path d="M0 0 C3.96 0 7.92 0 12 0 C12 1.65 12 3.3 12 5 C11.01 5 10.02 5 9 5 C9.33 5.66 9.66 6.32 10 7 C13.00259517 7.33218192 13.00259517 7.33218192 14.6875 5.5 C15.3371875 4.7575 15.3371875 4.7575 16 4 C16.33 5.65 16.66 7.3 17 9 C17.66 9 18.32 9 19 9 C19 7.02 19 5.04 19 3 C18.34 2.67 17.68 2.34 17 2 C17 1.34 17 0.68 17 0 C21.62 0 26.24 0 31 0 C31 9.57 31 19.14 31 29 C20.77 29 10.54 29 0 29 C0 19.43 0 9.86 0 0 Z " fill="#04476C" transform="translate(611,318)"/>
<path d="M0 0 C10.56 0 21.12 0 32 0 C32 8.58 32 17.16 32 26 C21.44 26 10.88 26 0 26 C0 17.42 0 8.84 0 0 Z " fill="#F8E49F" transform="translate(253,302)"/>
<path d="M0 0 C10.56 0 21.12 0 32 0 C32 8.58 32 17.16 32 26 C21.44 26 10.88 26 0 26 C0 17.42 0 8.84 0 0 Z " fill="#06425C" transform="translate(573,286)"/>
<path d="M0 0 C6.51311654 3.12742804 13.18936895 7.71499305 17 14 C18.56058541 20.06908483 17.61239142 25.78187178 17 32 C6.44 32 -4.12 32 -15 32 C-16.76832845 16.6744868 -16.76832845 16.6744868 -13.52783203 11.7734375 C-9.51186093 7.288149 -4.86336672 3.53025237 0 0 Z " fill="#F8E19B" transform="translate(588,374)"/>
<path d="M0 0 C2.125 1.9375 2.125 1.9375 3.39453125 3.359375 C5.02728666 5.11710674 5.02728666 5.11710674 7.32421875 6.703125 C10.72267555 9.41335428 13.57429152 11.71413053 14.40429688 16.17089844 C14.79036209 21.53460229 14.36100439 26.58493421 14 32 C3.77 32 -6.46 32 -17 32 C-18.6415461 16.75707191 -18.6415461 16.75707191 -15.67431641 11.7734375 C-6.15800562 0 -6.15800562 0 0 0 Z " fill="#F8DD93" transform="translate(628,374)"/>
<path d="M0 0 C12.87 0 25.74 0 39 0 C39 3.96 39 7.92 39 12 C26.13 12 13.26 12 0 12 C0 8.04 0 4.08 0 0 Z " fill="#07425B" transform="translate(290,246)"/>
<path d="M0 0 C1.98 0 3.96 0 6 0 C6 20.79 6 41.58 6 63 C4.02 63 2.04 63 0 63 C0 42.21 0 21.42 0 0 Z " fill="#04528B" transform="translate(291,343)"/>
<path d="M0 0 C0.33 0.66 0.66 1.32 1 2 C1.66 2 2.32 2 3 2 C3 11.57 3 21.14 3 31 C2.34 31 1.68 31 1 31 C1 32.98 1 34.96 1 37 C1.66 37 2.32 37 3 37 C3 41.62 3 46.24 3 51 C0.36 51 -2.28 51 -5 51 C-5.12467106 45.50488326 -5.21483881 40.01061032 -5.2746582 34.5144043 C-5.29962439 32.64934934 -5.33361 30.78439043 -5.37719727 28.91967773 C-5.82985775 9.03989442 -5.82985775 9.03989442 0 0 Z " fill="#125275" transform="translate(564,316)"/>
<path d="M0 0 C10.56 0 21.12 0 32 0 C32 2.97 32 5.94 32 9 C21.44 9 10.88 9 0 9 C0 6.03 0 3.06 0 0 Z " fill="#0E4B6A" transform="translate(253,328)"/>
<path d="M0 0 C3.96 0 7.92 0 12 0 C12 1.65 12 3.3 12 5 C11.01 5 10.02 5 9 5 C9.33 5.66 9.66 6.32 10 7 C13.00259517 7.33218192 13.00259517 7.33218192 14.6875 5.5 C15.3371875 4.7575 15.3371875 4.7575 16 4 C16.33 5.65 16.66 7.3 17 9 C17.66 9 18.32 9 19 9 C19 7.02 19 5.04 19 3 C18.34 2.67 17.68 2.34 17 2 C17 1.34 17 0.68 17 0 C21.62 0 26.24 0 31 0 C31 3.63 31 7.26 31 11 C20.77 11 10.54 11 0 11 C0 7.37 0 3.74 0 0 Z " fill="#C7C293" transform="translate(611,318)"/>
<path d="M0 0 C2.64 0 5.28 0 8 0 C8 8.91 8 17.82 8 27 C4.37 27 0.74 27 -3 27 C-3 19.41 -3 11.82 -3 4 C-2.01 4 -1.02 4 0 4 C0 2.68 0 1.36 0 0 Z " fill="#054D7B" transform="translate(343,339)"/>
<path d="M0 0 C0.99 0 1.98 0 3 0 C3 12.87 3 25.74 3 39 C-4.26 39 -11.52 39 -19 39 C-19 51.87 -19 64.74 -19 78 C-19.99 78 -20.98 78 -22 78 C-22 64.47 -22 50.94 -22 37 C-14.74 37 -7.48 37 0 37 C0 24.79 0 12.58 0 0 Z " fill="#D0DEE7" transform="translate(736,329)"/>
<path d="M0 0 C2.16473052 3.24709578 2.84939819 5.72955888 3.8125 9.5 C4.15731029 10.839906 4.50237538 12.17974644 4.84765625 13.51953125 C5.03086426 14.23705566 5.21407227 14.95458008 5.40283203 15.69384766 C6.04117363 18.15900494 6.70375619 20.61675866 7.37109375 23.07421875 C7.60014404 23.92371094 7.82919434 24.77320313 8.06518555 25.6484375 C8.51528852 27.31726849 8.96848556 28.98526861 9.42504883 30.65234375 C9.63025146 31.420625 9.8354541 32.18890625 10.046875 32.98046875 C10.23088867 33.66004639 10.41490234 34.33962402 10.60449219 35.03979492 C11 37 11 37 11 41 C10.34 41 9.68 41 9 41 C7.68373308 37.38026598 7 34.90432869 7 31 C6.34 31 5.68 31 5 31 C5 34.3 5 37.6 5 41 C3.35 41 1.7 41 0 41 C0 27.47 0 13.94 0 0 Z " fill="#F5DA90" transform="translate(648,366)"/>
<path d="M0 0 C8.91 0 17.82 0 27 0 C20.25 7.875 20.25 7.875 17.125 11.4375 C16.52945312 12.11683594 15.93390625 12.79617188 15.3203125 13.49609375 C14.88460938 13.99238281 14.44890625 14.48867188 14 15 C10.19163075 13.45747973 8.01882086 11.10878844 5.3125 8.0625 C4.52488281 7.18722656 3.73726563 6.31195313 2.92578125 5.41015625 C1 3 1 3 0 0 Z " fill="#044A74" transform="translate(256,343)"/>
<path d="M0 0 C8.58 0 17.16 0 26 0 C19.25 9 19.25 9 16.125 12 C15.52945312 12.5775 14.93390625 13.155 14.3203125 13.75 C13.66675781 14.36875 13.66675781 14.36875 13 15 C8.10554393 11.17993673 3.72562043 6.99321318 0 2 C0 1.34 0 0.68 0 0 Z " fill="#054A73" transform="translate(306,343)"/>
<path d="M0 0 C8.25 0 16.5 0 25 0 C23.13476778 3.73046444 21.31088391 6.16314517 18.5625 9.25 C17.78003906 10.14203125 16.99757813 11.0340625 16.19140625 11.953125 C14 14 14 14 11 14 C8.9811224 12.08922438 7.14980029 10.19700059 5.3125 8.125 C4.80138672 7.56941406 4.29027344 7.01382812 3.76367188 6.44140625 C0 2.27071512 0 2.27071512 0 0 Z " fill="#044B78" transform="translate(448,343)"/>
<path d="M0 0 C1.98 0 3.96 0 6 0 C6 11.22 6 22.44 6 34 C4.02 34 2.04 34 0 34 C0 22.78 0 11.56 0 0 Z " fill="#054463" transform="translate(291,302)"/>
<path d="M0 0 C0.33 0 0.66 0 1 0 C1 11.55 1 23.1 1 35 C25.09 35 49.18 35 74 35 C74 37.31 74 39.62 74 42 C73.505 40.02 73.505 40.02 73 38 C72.11494781 37.98969254 71.22989563 37.97938507 70.31802368 37.96876526 C61.98924184 37.87090733 53.66053293 37.76840973 45.33187294 37.66066074 C41.04972559 37.60542678 36.76757142 37.55200602 32.48535156 37.50268555 C28.35506512 37.45504897 24.22486299 37.40270642 20.09467697 37.34705925 C18.51659613 37.32663249 16.93849217 37.30791994 15.36037064 37.29092598 C13.15503811 37.26688903 10.94986549 37.23683366 8.74462891 37.20532227 C7.48776276 37.18977798 6.23089661 37.1742337 4.9359436 37.15821838 C2 37 2 37 0 36 C0 24.12 0 12.24 0 0 Z " fill="#D7E1E4" transform="translate(173,331)"/>
<path d="M0 0 C1.98 0 3.96 0 6 0 C6 10.23 6 20.46 6 31 C4.02 31 2.04 31 0 31 C0 20.77 0 10.54 0 0 Z " fill="#04415B" transform="translate(291,265)"/>
<path d="M0 0 C0.66 0 1.32 0 2 0 C2 8.58 2 17.16 2 26 C-2 22 -6 18 -10 14 C-8.71882171 9.30234629 -6.00472107 6.78197339 -2.55859375 3.55078125 C-0.89969455 2.06489775 -0.89969455 2.06489775 0 0 Z " fill="#064A79" transform="translate(475,350)"/>
<path d="M0 0 C8.25 0 16.5 0 25 0 C20.94500008 4.73083325 17.75103691 8.26704243 13 12 C9.34435261 10.46563424 7.01301377 8.25017578 4.25 5.4375 C3.45078125 4.63183594 2.6515625 3.82617188 1.828125 2.99609375 C0 1 0 1 0 0 Z " fill="#054A75" transform="translate(614,353)"/>
<path d="M0 0 C7.92 0 15.84 0 24 0 C22.87469572 3.37591285 21.83946383 4.28446799 19.1875 6.5625 C18.50042969 7.16191406 17.81335938 7.76132812 17.10546875 8.37890625 C15.13444155 9.89648749 13.26035739 10.97902958 11 12 C10.54109375 11.52949219 10.0821875 11.05898438 9.609375 10.57421875 C5.77414308 6.66905586 5.77414308 6.66905586 1.5625 3.1875 C1.046875 2.795625 0.53125 2.40375 0 2 C0 1.34 0 0.68 0 0 Z " fill="#054A76" transform="translate(577,353)"/>
<path d="M0 0 C1.65 0 3.3 0 5 0 C5 10.56 5 21.12 5 32 C3.35 32 1.7 32 0 32 C0 21.44 0 10.88 0 0 Z " fill="#E9E4B1" transform="translate(329,264)"/>
<path d="M0 0 C0.99 0.495 0.99 0.495 2 1 C2 1.66 2 2.32 2 3 C2.66 3 3.32 3 4 3 C5.1577506 6.47325181 5.06866652 9.36067448 5 13 C5.66 13 6.32 13 7 13 C7 15.31 7 17.62 7 20 C7.66 20 8.32 20 9 20 C9.65003625 22.20709983 10.29484745 24.41573892 10.9375 26.625 C11.29714844 27.85476562 11.65679688 29.08453125 12.02734375 30.3515625 C13.52602828 35.97313419 14.12185899 41.05781934 14.0625 46.875 C14.05347656 48.02742188 14.04445313 49.17984375 14.03515625 50.3671875 C14.02355469 51.23601562 14.01195312 52.10484375 14 53 C14.66 53 15.32 53 16 53 C16.06058594 54.04800781 16.12117187 55.09601563 16.18359375 56.17578125 C16.26801738 57.55470048 16.35266447 58.93360605 16.4375 60.3125 C16.47681641 61.00279297 16.51613281 61.69308594 16.55664062 62.40429688 C16.74927415 65.47161535 17.02322717 68.06968152 18 71 C17.34 71 16.68 71 16 71 C15.67 71.99 15.34 72.98 15 74 C14.91024902 73.16154541 14.82049805 72.32309082 14.72802734 71.45922852 C12.22262884 48.58147689 8.68690258 26.36566851 0.8828125 4.59765625 C0 2 0 2 0 0 Z " fill="#FEFDF9" transform="translate(680,171)"/>
<path d="M0 0 C1.65 1.65 3.3 3.3 5 5 C5.60585938 5.54785156 6.21171875 6.09570312 6.8359375 6.66015625 C8.375 8.0625 8.375 8.0625 11 11 C10.88076004 15.04564153 8.1261561 17.40776776 5.5 20.25 C4.6853125 21.14203125 3.870625 22.0340625 3.03125 22.953125 C2.02578125 23.96632813 2.02578125 23.96632813 1 25 C0.67 25 0.34 25 0 25 C0 16.75 0 8.5 0 0 Z " fill="#064A78" transform="translate(303,350)"/>
<path d="M0 0 C2.31 1.98 4.62 3.96 7 6 C7.825 6.70125 8.65 7.4025 9.5 8.125 C11 10 11 10 10.875 11.7890625 C9.65649657 14.86795956 7.74013155 16.82555383 5.5 19.25 C4.6853125 20.14203125 3.870625 21.0340625 3.03125 21.953125 C2.02578125 22.96632813 2.02578125 22.96632813 1 24 C0.67 24 0.34 24 0 24 C0 16.08 0 8.16 0 0 Z " fill="#074F7F" transform="translate(253,351)"/>
<path d="M0 0 C2.31 1.98 4.62 3.96 7 6 C7.825 6.70125 8.65 7.4025 9.5 8.125 C11 10 11 10 10.875 11.7890625 C9.65649657 14.86795956 7.74013155 16.82555383 5.5 19.25 C4.6853125 20.14203125 3.870625 21.0340625 3.03125 21.953125 C2.02578125 22.96632813 2.02578125 22.96632813 1 24 C0.67 24 0.34 24 0 24 C0 16.08 0 8.16 0 0 Z " fill="#044E81" transform="translate(445,351)"/>
<path d="M0 0 C0 7.92 0 15.84 0 24 C-1.65 22.35 -3.3 20.7 -5 19 C-5.60585938 18.45214844 -6.21171875 17.90429688 -6.8359375 17.33984375 C-8.375 15.9375 -8.375 15.9375 -11 13 C-10.88336572 8.97611718 -8.25889457 6.92158778 -5.5 4.25 C-4.6853125 3.45078125 -3.870625 2.6515625 -3.03125 1.828125 C-1 0 -1 0 0 0 Z " fill="#074F7F" transform="translate(285,351)"/>
<path d="M0 0 C0 7.59 0 15.18 0 23 C-7.875 16.25 -7.875 16.25 -11 13 C-9.65843409 8.98935008 -7.97314977 6.61296284 -4.9375 3.6875 C-4.22464844 2.99011719 -3.51179688 2.29273438 -2.77734375 1.57421875 C-1 0 -1 0 0 0 Z " fill="#064D7B" transform="translate(334,351)"/>
<path d="M0 0 C0.66 0 1.32 0 2 0 C2.33 0.99 2.66 1.98 3 3 C2.67 3.66 2.34 4.32 2 5 C1.34 5 0.68 5 0 5 C0 6.32 0 7.64 0 9 C-0.66 9 -1.32 9 -2 9 C-2.12375 9.886875 -2.2475 10.77375 -2.375 11.6875 C-2.94412736 14.70387502 -3.76614436 17.20326054 -5 20 C-5.66 20 -6.32 20 -7 20 C-7 21.32 -7 22.64 -7 24 C-7.66 24 -8.32 24 -9 24 C-9 25.32 -9 26.64 -9 28 C-9.66 28 -10.32 28 -11 28 C-11.12375 29.051875 -11.2475 30.10375 -11.375 31.1875 C-11.91140782 34.45958771 -12.63880035 37.00536076 -14 40 C-14.66 40 -15.32 40 -16 40 C-16 42.31 -16 44.62 -16 47 C-18 45 -18 45 -18.421875 42.05859375 C-18.25796611 36.59731917 -15.57415471 31.89687236 -13.25 27.0625 C-12.8065625 26.11181641 -12.363125 25.16113281 -11.90625 24.18164062 C-9.90899883 19.91985909 -7.85639162 15.68929208 -5.7421875 11.484375 C-4.01535476 8.15127686 -4.01535476 8.15127686 -2.875 5.1875 C-2 3 -2 3 0 0 Z " fill="#F1FBFA" transform="translate(696,123)"/>
<path d="M0 0 C1.65 0 3.3 0 5 0 C5 8.58 5 17.16 5 26 C3.35 26 1.7 26 0 26 C0 17.42 0 8.84 0 0 Z " fill="#E9E3AD" transform="translate(329,302)"/>
<path d="M0 0 C5 4 5 4 5.56762695 6.56542969 C5.54144287 7.50805664 5.51525879 8.45068359 5.48828125 9.421875 C5.47216797 10.44667969 5.45605469 11.47148437 5.43945312 12.52734375 C5.39755859 13.59082031 5.35566406 14.65429688 5.3125 15.75 C5.27866211 17.36841797 5.27866211 17.36841797 5.24414062 19.01953125 C5.1852565 21.6810935 5.10307001 24.33984228 5 27 C3.35 27 1.7 27 0 27 C0 18.09 0 9.18 0 0 Z " fill="#E7D99C" transform="translate(329,379)"/>
<path d="M0 0 C0.66 0.33 1.32 0.66 2 1 C2.8515625 3.80078125 2.8515625 3.80078125 3.625 7.3125 C3.88539063 8.46363281 4.14578125 9.61476563 4.4140625 10.80078125 C5 14 5 14 5 18 C4.34 18 3.68 18 3 18 C1.68373308 14.38026598 1 11.90432869 1 8 C0.34 8 -0.32 8 -1 8 C-1 11.3 -1 14.6 -1 18 C-2.65 18 -4.3 18 -6 18 C-6.75429531 10.0798993 -4.90453338 6.17445721 0 0 Z " fill="#F5F4F2" transform="translate(654,389)"/>
<path d="M0 0 C3.46679688 0.04882812 3.46679688 0.04882812 6.93359375 0.09765625 C6.93359375 4.71765625 6.93359375 9.33765625 6.93359375 14.09765625 C5.86109375 13.16953125 4.78859375 12.24140625 3.68359375 11.28515625 C1.164581 9.12381265 -1.37095986 7.03837765 -4.06640625 5.09765625 C-2.94676868 0.13926128 -2.94676868 0.13926128 0 0 Z " fill="#E6D698" transform="translate(598.06640625,365.90234375)"/>
<path d="M0 0 C2.97 0 5.94 0 9 0 C9.66 1.32 10.32 2.64 11 4 C9.35718838 5.66964521 7.71067239 7.3356464 6.0625 9 C4.68771484 10.3921875 4.68771484 10.3921875 3.28515625 11.8125 C1 14 1 14 0 14 C0 9.38 0 4.76 0 0 Z " fill="#E7D99E" transform="translate(573,366)"/>
<path d="M0 0 C2.27864583 0.06510417 4.55729167 0.13020833 6.8359375 0.1953125 C6.8359375 4.4853125 6.8359375 8.7753125 6.8359375 13.1953125 C2.68235496 9.76061925 -0.95281592 6.56260784 -4.1640625 2.1953125 C-2.1640625 0.1953125 -2.1640625 0.1953125 0 0 Z " fill="#EDD58F" transform="translate(635.1640625,366.8046875)"/>
<path d="M0 0 C3.96 0 7.92 0 12 0 C12 2.64 12 5.28 12 8 C8.37 8 4.74 8 1 8 C1.020625 7.05125 1.04125 6.1025 1.0625 5.125 C1.22551826 2.09333717 1.22551826 2.09333717 0 0 Z " fill="#F8E49F" transform="translate(629,319)"/>
<path d="M0 0 C2.97 0 5.94 0 9 0 C9.33 1.32 9.66 2.64 10 4 C8.52351062 5.33629746 7.0437367 6.66896671 5.5625 8 C4.73878906 8.7425 3.91507813 9.485 3.06640625 10.25 C1 12 1 12 0 12 C0 8.04 0 4.08 0 0 Z " fill="#F2DB97" transform="translate(611,367)"/>
<path d="M0 0 C3.27275026 3.27275026 5.54738045 6.14588356 8 10 C7.67 10.66 7.34 11.32 7 12 C5.68 11.34 4.36 10.68 3 10 C3.33 13.63 3.66 17.26 4 21 C2.68 21 1.36 21 0 21 C0 14.07 0 7.14 0 0 Z " fill="#F9F8F4" transform="translate(253,385)"/>
<path d="M0 0 C0.66 0.33 1.32 0.66 2 1 C2 1.66 2 2.32 2 3 C4.31 3.33 6.62 3.66 9 4 C9 4.33 9 4.66 9 5 C8.39671875 4.99097656 7.7934375 4.98195312 7.171875 4.97265625 C4.63341319 5.06682499 2.4449578 5.30023622 0 6 C-4.3656788 11.12967259 -4.73526659 16.42137479 -5 23 C-6.65 23 -8.3 23 -10 23 C-7.60292686 14.82175048 -3.91141228 7.53348722 0 0 Z " fill="#C7BF8D" transform="translate(260,235)"/>
<path d="M0 0 C0.33 0 0.66 0 1 0 C1 7.26 1 14.52 1 22 C1.99 22 2.98 22 4 22 C4 22.99 4 23.98 4 25 C3.01 25 2.02 25 1 25 C1 37.21 1 49.42 1 62 C0.67 62 0.34 62 0 62 C0 41.54 0 21.08 0 0 Z " fill="#F6B039" transform="translate(377,192)"/>
<path d="M0 0 C2.5 0.25 2.5 0.25 4.5 2.25 C4.75 4.75 4.75 4.75 4.5 7.25 C2.5 9.25 2.5 9.25 -0.625 9.375 C-2.048125 9.313125 -2.048125 9.313125 -3.5 9.25 C-4.125 5.875 -4.125 5.875 -4.5 2.25 C-2.5 0.25 -2.5 0.25 0 0 Z " fill="#2C2B24" transform="translate(358.5,367.75)"/>
<path d="M0 0 C2.5625 0.1875 2.5625 0.1875 4.5625 2.1875 C4.8125 4.6875 4.8125 4.6875 4.5625 7.1875 C2.5625 9.1875 2.5625 9.1875 0.0625 9.5 C-1.175 9.3453125 -1.175 9.3453125 -2.4375 9.1875 C-4.4375 6.1875 -4.4375 6.1875 -4.125 3.5625 C-3.16420807 0.24340062 -3.16420807 0.24340062 0 0 Z " fill="#2B2B25" transform="translate(360.4375,292.8125)"/>
<path d="M0 0 C3.96 0 7.92 0 12 0 C12 1.32 12 2.64 12 4 C13.32 4.33 14.64 4.66 16 5 C10.72 5 5.44 5 0 5 C0 3.35 0 1.7 0 0 Z " fill="#285B70" transform="translate(340,328)"/>
<path d="M0 0 C1.4540625 0.0309375 1.4540625 0.0309375 2.9375 0.0625 C3.5625 3.4375 3.5625 3.4375 3.9375 7.0625 C1.9375 9.0625 1.9375 9.0625 -0.6875 9.1875 C-1.47125 9.14625 -2.255 9.105 -3.0625 9.0625 C-4.42873674 6.33002652 -4.190926 4.08051098 -4.0625 1.0625 C-3.0625 0.0625 -3.0625 0.0625 0 0 Z " fill="#31322A" transform="translate(265.0625,228.9375)"/>
<path d="M0 0 C3.3 0 6.6 0 10 0 C10.33 1.98 10.66 3.96 11 6 C7.7 6 4.4 6 1 6 C0.67 4.02 0.34 2.04 0 0 Z " fill="#E3E3E3" transform="translate(661,387)"/>
<path d="M0 0 C9.24 0 18.48 0 28 0 C28 0.99 28 1.98 28 3 C18.76 3 9.52 3 0 3 C0 2.01 0 1.02 0 0 Z " fill="#152933" transform="translate(447,341)"/>
<path d="M0 0 C3.3 0 6.6 0 10 0 C10.33 2.64 10.66 5.28 11 8 C8.03 8 5.06 8 2 8 C0.74335022 5.09399739 0 3.20395416 0 0 Z M4 3 C4 4.32 4 5.64 4 7 C5.65 7 7.3 7 9 7 C8.67 5.68 8.34 4.36 8 3 C6.68 3 5.36 3 4 3 Z " fill="#E1E2E2" transform="translate(664,399)"/>
<path d="M0 0 C2.45823172 3.68734758 3.01242616 6.69699971 4 11 C1.36 11 -1.28 11 -4 11 C-3.48964169 6.6109185 -2.47785723 3.66291938 0 0 Z " fill="#F2F3EF" transform="translate(223,316)"/>
<path d="M0 0 C3.3 0 6.6 0 10 0 C10.33 1.65 10.66 3.3 11 5 C7.7 5 4.4 5 1 5 C0.67 3.35 0.34 1.7 0 0 Z " fill="#C3BDB0" transform="translate(658,377)"/>
<path d="M0 0 C3.3 0 6.6 0 10 0 C10 1.65 10 3.3 10 5 C6.7 5 3.4 5 0 5 C0 3.35 0 1.7 0 0 Z " fill="#D7BE7D" transform="translate(656,367)"/>
<path d="M0 0 C3.3 0 6.6 0 10 0 C10 1.65 10 3.3 10 5 C6.7 5 3.4 5 0 5 C0 3.35 0 1.7 0 0 Z " fill="#07466F" transform="translate(653,356)"/>
<path d="M0 0 C2.64 0 5.28 0 8 0 C8 2 8 2 5.6875 4.5 C3 7 3 7 0 9 C0 6.03 0 3.06 0 0 Z " fill="#D6C489" transform="translate(253,366)"/>
<path d="M0 0 C2.64 0 5.28 0 8 0 C8 2.97 8 5.94 8 9 C5.06799526 6.14723863 2.35684596 3.34920216 0 0 Z " fill="#DACB92" transform="translate(277,366)"/>
<path d="M0 0 C0.66 0.33 1.32 0.66 2 1 C2 2.32 2 3.64 2 5 C3.65 5 5.3 5 7 5 C7 5.33 7 5.66 7 6 C-0.26 6 -7.52 6 -15 6 C-15 5.67 -15 5.34 -15 5 C-13.87851562 4.96132813 -13.87851562 4.96132813 -12.734375 4.921875 C-6.59307795 4.71313116 -6.59307795 4.71313116 -1.3125 1.9375 C-0.6628125 0.9784375 -0.6628125 0.9784375 0 0 Z " fill="#DDD29D" transform="translate(626,322)"/>
<path d="M0 0 C1.2065625 0.0309375 1.2065625 0.0309375 2.4375 0.0625 C2.81968767 1.71864657 3.15145102 3.38707024 3.4375 5.0625 C2.4375 6.0625 2.4375 6.0625 -0.125 6.125 C-1.3315625 6.0940625 -1.3315625 6.0940625 -2.5625 6.0625 C-2.94468767 4.40635343 -3.27645102 2.73792976 -3.5625 1.0625 C-2.5625 0.0625 -2.5625 0.0625 0 0 Z " fill="#323028" transform="translate(628.5625,289.9375)"/>
<path d="M0 0 C0 2.64 0 5.28 0 8 C-2.97 8 -5.94 8 -9 8 C-7.33333333 6.33333333 -5.66666667 4.66666667 -4 3 C-3.4225 2.401875 -2.845 1.80375 -2.25 1.1875 C-1 0 -1 0 0 0 Z " fill="#245B78" transform="translate(642,359)"/>
<path d="M0 0 C2.64 0 5.28 0 8 0 C7.67 1.32 7.34 2.64 7 4 C3.04 4 -0.92 4 -5 4 C-5 3.67 -5 3.34 -5 3 C-3.35 3 -1.7 3 0 3 C0 2.01 0 1.02 0 0 Z " fill="#A6A584" transform="translate(359,243)"/>
<path d="M0 0 C0.33 0 0.66 0 1 0 C1 7.26 1 14.52 1 22 C1.99 22 2.98 22 4 22 C4 22.99 4 23.98 4 25 C2.68 25 1.36 25 0 25 C0 16.75 0 8.5 0 0 Z " fill="#F7C75A" transform="translate(377,192)"/>
<path d="M0 0 C1.33617352 0.97528737 2.6688751 1.95533319 4 2.9375 C4.7425 3.48277344 5.485 4.02804687 6.25 4.58984375 C6.8275 5.05519531 7.405 5.52054687 8 6 C8 6.33 8 6.66 8 7 C5.36 7 2.72 7 0 7 C0 4.69 0 2.38 0 0 Z " fill="#266180" transform="translate(611,360)"/>
<path d="M0 0 C1.65 0 3.3 0 5 0 C3.89470285 4.50621146 3.34905453 6.65094547 0 10 C0 6.7 0 3.4 0 0 Z " fill="#DBD7A7" transform="translate(573,286)"/>
<path d="M0 0 C1.65 0 3.3 0 5 0 C5 2.64 5 5.28 5 8 C2.5 6.25 2.5 6.25 0 4 C0 2.68 0 1.36 0 0 Z " fill="#DCD5A0" transform="translate(329,366)"/>
<path d="M0 0 C1.32 0 2.64 0 4 0 C4 3.96 4 7.92 4 12 C2.09681116 9.14521674 1.5380901 7.58058692 0.875 4.3125 C0.70742188 3.50425781 0.53984375 2.69601562 0.3671875 1.86328125 C0.24601563 1.24839844 0.12484375 0.63351562 0 0 Z " fill="#C9D4DB" transform="translate(671,366)"/>
<path d="M0 0 C1.16959987 0.97566112 2.33561177 1.955625 3.5 2.9375 C4.1496875 3.48277344 4.799375 4.02804687 5.46875 4.58984375 C5.9740625 5.05519531 6.479375 5.52054687 7 6 C7 6.33 7 6.66 7 7 C4.69 7 2.38 7 0 7 C0 4.69 0 2.38 0 0 Z " fill="#094F7B" transform="translate(573,359)"/>
<path d="M0 0 C0.33 0 0.66 0 1 0 C1 2.31 1 4.62 1 7 C-1.31 7 -3.62 7 -6 7 C-5.02433888 5.83040013 -4.044375 4.66438823 -3.0625 3.5 C-2.51722656 2.8503125 -1.97195313 2.200625 -1.41015625 1.53125 C-0.71212891 0.77328125 -0.71212891 0.77328125 0 0 Z " fill="#094F7C" transform="translate(604,359)"/>
<path d="M0 0 C2 2 2 2 2.125 5.125 C2.08375 6.07375 2.0425 7.0225 2 8 C0.35 8 -1.3 8 -3 8 C-1.125 1.125 -1.125 1.125 0 0 Z " fill="#E1D499" transform="translate(253,250)"/>
<path d="M0 0 C0.66 0 1.32 0 2 0 C2 0.66 2 1.32 2 2 C2.66 2 3.32 2 4 2 C4 2.99 4 3.98 4 5 C3.34 5 2.68 5 2 5 C2 5.66 2 6.32 2 7 C-0.95664519 8.4783226 -3.74229737 8.06032783 -7 8 C-7 7.67 -7 7.34 -7 7 C-4.69 6.34 -2.38 5.68 0 5 C0 3.35 0 1.7 0 0 Z " fill="#FDFDFD" transform="translate(738,407)"/>
<path d="M0 0 C2 2 2 2 2.125 5.125 C2.08375 6.07375 2.0425 7.0225 2 8 C1.01 8 0.02 8 -1 8 C-0.67 5.36 -0.34 2.72 0 0 Z " fill="#CEC797" transform="translate(361,325)"/>
<path d="M0 0 C0 1.98 0 3.96 0 6 C-2 6 -2 6 -3.625 4.5 C-4.07875 4.005 -4.5325 3.51 -5 3 C-3.7124791 0.4249582 -2.85933002 0 0 0 Z " fill="#484435" transform="translate(266,270)"/>
<path d="M0 0 C0.66 0.33 1.32 0.66 2 1 C-0.25 3.5625 -0.25 3.5625 -3 6 C-4.32 5.67 -5.64 5.34 -7 5 C-4.69 3.35 -2.38 1.7 0 0 Z " fill="#344D57" transform="translate(417,248)"/>
<path d="M0 0 C0.66 1.32 1.32 2.64 2 4 C1.34 4 0.68 4 0 4 C-0.33 4.66 -0.66 5.32 -1 6 C-1 5.34 -1 4.68 -1 4 C-1.66 4 -2.32 4 -3 4 C-3 3.01 -3 2.02 -3 1 C-2.01 0.67 -1.02 0.34 0 0 Z " fill="#FBEDB5" transform="translate(514,161)"/>
<path d="M0 0 C0.99 0.33 1.98 0.66 3 1 C2.75 2.875 2.75 2.875 2 5 C-0.0625 6.25 -0.0625 6.25 -2 7 C-1.34 4.69 -0.68 2.38 0 0 Z " fill="#E2F8F6" transform="translate(690,134)"/>
<path d="M0 0 C0.66 0 1.32 0 2 0 C2.33 0.99 2.66 1.98 3 3 C2.67 3.66 2.34 4.32 2 5 C-0.0625 5.625 -0.0625 5.625 -2 6 C-1.49396008 3.83125748 -1.00016187 2.00032373 0 0 Z " fill="#F9FDFD" transform="translate(696,123)"/>
</svg>
